<svg xmlns="http://www.w3.org/2000/svg" viewBox="0 0 500 500"><!--Online Review (1)--><g id="freepik--background-simple--inject-15--inject-3"><path d="M427.92,231.16c1.88-25-3.93-51-11.72-74.3-11.56-34.53-34-69.94-71.79-78.11-21.79-4.71-44,.34-62.65,12.15-18,11.35-32,26-54.07,28.86-22.34,2.88-45.27,1.72-67.73,1.72-57.75,0-104.61,60.67-92.89,123.86s67,107,113.81,107c42.12,0,76.76-25.27,116.76-32.05,19.84-3.36,39.76.62,59.38-4.42C379.84,310,401.3,296,413.94,275.79,422.55,262,426.74,246.79,427.92,231.16Z" style="fill:#92E3A9"></path><path d="M427.92,231.16c1.88-25-3.93-51-11.72-74.3-11.56-34.53-34-69.94-71.79-78.11-21.79-4.71-44,.34-62.65,12.15-18,11.35-32,26-54.07,28.86-22.34,2.88-45.27,1.72-67.73,1.72-57.75,0-104.61,60.67-92.89,123.86s67,107,113.81,107c42.12,0,76.76-25.27,116.76-32.05,19.84-3.36,39.76.62,59.38-4.42C379.84,310,401.3,296,413.94,275.79,422.55,262,426.74,246.79,427.92,231.16Z" style="fill:#fff;opacity:0.7000000000000001"></path></g><g id="freepik--Shadow--inject-15--inject-3"><path d="M449,370.22c0,5.49-81.93,9.94-183,9.94s-183-4.45-183-9.94,81.93-10,183-10S449,364.73,449,370.22Z" style="fill:#92E3A9"></path><path d="M449,370.22c0,5.49-81.93,9.94-183,9.94s-183-4.45-183-9.94,81.93-10,183-10S449,364.73,449,370.22Z" style="fill:#fff;opacity:0.5"></path></g><g id="freepik--Plant--inject-15--inject-3"><path d="M425.72,191.15s0-4.75-6.65-11.41-10.93-10.45-10.93-10.45-3.33,10.93,2.85,17.58a117.35,117.35,0,0,0,14.73,12.83Z" style="fill:#92E3A9"></path><path d="M416.07,220.82s0-4.75-6.66-11.4S398.49,199,398.49,199s-3.33,10.93,2.85,17.58a116.58,116.58,0,0,0,14.73,12.83Z" style="fill:#92E3A9"></path><path d="M425.3,199.24s.5-4.73,7.82-10.64,12-9.24,12-9.24,2.15,11.22-4.69,17.18a116.42,116.42,0,0,1-16,11.2Z" style="fill:#92E3A9"></path><path d="M413.64,234.28s1-4.64,8.89-9.75,12.88-7.94,12.88-7.94,1,11.39-6.47,16.6a116.82,116.82,0,0,1-17.09,9.45Z" style="fill:#92E3A9"></path><path d="M415.83,272.49s0-4.75,6.65-11.41,10.93-10.45,10.93-10.45,3.33,10.93-2.85,17.58A117.35,117.35,0,0,1,415.83,281Z" style="fill:#92E3A9"></path><path d="M415.72,281.81s.68-4.7-5-12.23-9.33-11.9-9.33-11.9-4.85,10.34.32,17.81a117.31,117.31,0,0,0,12.75,14.79Z" style="fill:#92E3A9"></path><path d="M409.16,309.45s0-4.75,6.65-11.4,10.93-10.46,10.93-10.46,3.33,10.93-2.85,17.58A116.41,116.41,0,0,1,409.16,318Z" style="fill:#92E3A9"></path><path d="M413.6,334.51s-1.2-4.6,3.55-12.72,7.92-12.88,7.92-12.88,6,9.73,1.7,17.73a116.73,116.73,0,0,1-11,16.14Z" style="fill:#92E3A9"></path><path d="M420.12,357.68a.5.5,0,0,1-.48-.34c-.09-.29-9.23-28.64-11-39.08-1-6.18.63-11.81,2.55-18.34a104.75,104.75,0,0,0,3.85-16.84c1-7.81-.36-15.58-1.67-23.09s-2.56-14.56-1.22-20.79c1.26-5.89,3.37-10.86,5.61-16.12,2.38-5.61,4.85-11.42,6.22-18.49a130.73,130.73,0,0,0,1.81-14.7.53.53,0,0,1,.54-.46.5.5,0,0,1,.46.54A135.25,135.25,0,0,1,425,204.78c-1.39,7.17-3.88,13-6.28,18.69-2.22,5.22-4.31,10.15-5.55,15.94-1.3,6-.07,13,1.22,20.41,1.33,7.59,2.7,15.43,1.68,23.38a105.28,105.28,0,0,1-3.88,17c-1.89,6.41-3.52,11.95-2.52,17.9,1.72,10.36,10.84,38.64,10.93,38.93a.5.5,0,0,1-.32.63Z" style="fill:#263238"></path><path d="M425.24,202.9a.51.51,0,0,1-.4-.2.5.5,0,0,1,.09-.7l7.17-5.5a.5.5,0,0,1,.61.79l-7.17,5.5A.5.5,0,0,1,425.24,202.9Z" style="fill:#263238"></path><path d="M425.57,196.56a.5.5,0,0,1-.44-.25l-3-5.34a.5.5,0,0,1,.87-.49l3,5.34a.5.5,0,0,1-.19.68A.5.5,0,0,1,425.57,196.56Z" style="fill:#263238"></path><path d="M413.07,239.24a.5.5,0,0,1-.3-.9c.06-.05,6.07-4.56,12.17-9a.5.5,0,1,1,.59.81c-6.09,4.45-12.1,9-12.16,9A.57.57,0,0,1,413.07,239.24Z" style="fill:#263238"></path><path d="M416.07,229.87a.5.5,0,0,1-.45-.27c-.05-.1-5-9.83-10.6-16.21a.5.5,0,0,1,.75-.65c5.65,6.47,10.69,16.3,10.74,16.4a.5.5,0,0,1-.22.68A.59.59,0,0,1,416.07,229.87Z" style="fill:#263238"></path><path d="M416.07,279.75a.46.46,0,0,1-.23-.06.5.5,0,0,1-.22-.67,75.78,75.78,0,0,1,12.93-17.3.5.5,0,0,1,.71,0,.49.49,0,0,1,0,.7,74.89,74.89,0,0,0-12.74,17A.49.49,0,0,1,416.07,279.75Z" style="fill:#263238"></path><path d="M414.9,286.41a.49.49,0,0,1-.46-.3A83.18,83.18,0,0,0,408,273.86c-3.42-5.06-4-5.79-4-5.82a.5.5,0,0,1,.1-.7.51.51,0,0,1,.7.1s.54.74,4,5.86a85.18,85.18,0,0,1,6.55,12.42.5.5,0,0,1-.27.66A.63.63,0,0,1,414.9,286.41Z" style="fill:#263238"></path><path d="M409.16,318.68a.57.57,0,0,1-.18,0,.5.5,0,0,1-.28-.65,79.7,79.7,0,0,1,5.44-11,71.7,71.7,0,0,1,7.06-9.25.5.5,0,0,1,.71,0,.49.49,0,0,1,0,.7,71.3,71.3,0,0,0-6.94,9.09,79.93,79.93,0,0,0-5.36,10.85A.51.51,0,0,1,409.16,318.68Z" style="fill:#263238"></path><path d="M415.77,343.28a.51.51,0,0,1-.5-.44A20.66,20.66,0,0,1,417.12,332c2-3.82,4.14-8.53,5.57-11.64.37-.81.68-1.49.93-2a.5.5,0,1,1,.9.42c-.24.52-.56,1.2-.92,2-1.44,3.13-3.6,7.85-5.59,11.69a19.88,19.88,0,0,0-1.74,10.23.52.52,0,0,1-.44.56Z" style="fill:#263238"></path><path d="M382.16,254.62s-.51-3,2.94-7.87,5.71-7.74,5.71-7.74,3.27,6.49.12,11.33a74.38,74.38,0,0,1-7.84,9.64Z" style="fill:#92E3A9"></path><path d="M391.44,272.18s-.52-3,2.93-7.88,5.72-7.74,5.72-7.74,3.27,6.5.12,11.34a74.38,74.38,0,0,1-7.84,9.64Z" style="fill:#92E3A9"></path><path d="M383.3,259.65s-.82-2.91-6.05-5.82-8.51-4.5-8.51-4.5-.14,7.27,4.8,10.27a74.66,74.66,0,0,0,11.25,5.28Z" style="fill:#92E3A9"></path><path d="M394.42,280.36s-1.13-2.81-6.64-5.16-8.93-3.57-8.93-3.57.63,7.24,5.86,9.7a74.42,74.42,0,0,0,11.74,4.08Z" style="fill:#92E3A9"></path><path d="M397.19,304.55s-.51-3-5.41-6.43-8-5.36-8-5.36-.9,7.21,3.69,10.71a74.41,74.41,0,0,0,10.63,6.44Z" style="fill:#92E3A9"></path><path d="M398.27,310.39s-.93-2.88,1.79-8.21,4.56-8.48,4.56-8.48,4.16,6,1.73,11.2A74.43,74.43,0,0,1,400,315.56Z" style="fill:#92E3A9"></path><path d="M406.62,334.42s.35-3,5-6.73,7.66-5.81,7.66-5.81,1.31,7.15-3.07,10.91a75,75,0,0,1-10.25,7Z" style="fill:#92E3A9"></path><path d="M405.39,327s-.52-3-5.41-6.43-8-5.37-8-5.37-.9,7.21,3.7,10.71a74.35,74.35,0,0,0,10.63,6.45Z" style="fill:#92E3A9"></path><path d="M405.32,343.2s.26-3-3.6-7.59-6.37-7.21-6.37-7.21-2.7,6.75.86,11.3a74.14,74.14,0,0,0,8.65,8.92Z" style="fill:#92E3A9"></path><path d="M403.7,358.63h-.07a.51.51,0,0,1-.43-.56c0-.19,2.68-18.9,2.64-25.58,0-3.79-1.56-6.91-3.51-10.87A66.75,66.75,0,0,1,398,311.35c-1.51-4.9-1.5-10-1.49-14.9,0-4.76,0-9.25-1.44-12.87a54.64,54.64,0,0,0-5.19-9.35,57.41,57.41,0,0,1-6-11.08,84.9,84.9,0,0,1-2.76-9.11.49.49,0,0,1,.36-.6.49.49,0,0,1,.61.36,86.05,86.05,0,0,0,2.72,9,56.7,56.7,0,0,0,5.9,10.89,55.7,55.7,0,0,1,5.28,9.52c1.52,3.8,1.52,8.38,1.51,13.24s0,9.84,1.44,14.61a65.85,65.85,0,0,0,4.24,10.11c1.92,3.91,3.58,7.28,3.61,11.31,0,6.74-2.54,24.95-2.65,25.72A.49.49,0,0,1,403.7,358.63Z" style="fill:#263238"></path><path d="M383.69,262.12a.53.53,0,0,1-.24-.06l-5.09-2.67a.5.5,0,1,1,.47-.88l5.09,2.67a.5.5,0,0,1-.23.94Z" style="fill:#263238"></path><path d="M382.79,258.18a.5.5,0,0,1-.17,0,.5.5,0,0,1-.3-.64l1.3-3.67a.51.51,0,0,1,.64-.31.49.49,0,0,1,.3.64l-1.3,3.67A.48.48,0,0,1,382.79,258.18Z" style="fill:#263238"></path><path d="M395.26,283.59a.46.46,0,0,1-.22-.06s-4.25-2.17-8.61-4.32a.5.5,0,0,1-.22-.67.49.49,0,0,1,.67-.22c4.36,2.15,8.61,4.32,8.61,4.32a.5.5,0,0,1-.23.95Z" style="fill:#263238"></path><path d="M392.37,278l-.15,0a.5.5,0,0,1-.33-.63,60.18,60.18,0,0,1,5-11.49.5.5,0,1,1,.85.52,60.75,60.75,0,0,0-4.87,11.27A.49.49,0,0,1,392.37,278Z" style="fill:#263238"></path><path d="M397.78,309.32a.51.51,0,0,1-.4-.2,47.12,47.12,0,0,0-9.8-9.27.5.5,0,0,1-.13-.69.51.51,0,0,1,.7-.13,48,48,0,0,1,10,9.49.51.51,0,0,1-.1.7A.57.57,0,0,1,397.78,309.32Z" style="fill:#263238"></path><path d="M399.23,313.37h-.11a.5.5,0,0,1-.37-.6,52.35,52.35,0,0,1,2.77-8.54c1.62-3.59,1.87-4.09,1.88-4.11a.5.5,0,0,1,.89.45s-.27.55-1.86,4.08a52.59,52.59,0,0,0-2.71,8.34A.5.5,0,0,1,399.23,313.37Z" style="fill:#263238"></path><path d="M406.1,338.13a.51.51,0,0,1-.31-.11.5.5,0,0,1-.07-.71,44.86,44.86,0,0,1,5.56-5.77,28,28,0,0,0,3.49-3,.5.5,0,0,1,.71,0,.49.49,0,0,1,0,.7,28.87,28.87,0,0,1-3.62,3.16,43.85,43.85,0,0,0-5.39,5.6A.5.5,0,0,1,406.1,338.13Z" style="fill:#263238"></path><path d="M406.34,333a.49.49,0,0,1-.43-.24,51.85,51.85,0,0,0-4.52-6.19,44.35,44.35,0,0,0-5.32-4.93.5.5,0,1,1,.61-.79,44.31,44.31,0,0,1,5.45,5.05,50.47,50.47,0,0,1,4.63,6.34.5.5,0,0,1-.16.69A.54.54,0,0,1,406.34,333Z" style="fill:#263238"></path><path d="M404.86,349.12a.5.5,0,0,1-.5-.47,12.42,12.42,0,0,0-2.17-6.13c-1.66-2.2-3.54-4.93-4.78-6.74l-.79-1.14a.5.5,0,1,1,.82-.57l.79,1.15c1.24,1.8,3.11,4.52,4.76,6.7a13.37,13.37,0,0,1,2.37,6.68.49.49,0,0,1-.47.52Z" style="fill:#263238"></path><path d="M390.11,354.84h43.51a0,0,0,0,1,0,0V369.5a3.5,3.5,0,0,1-3.5,3.5H393.61a3.5,3.5,0,0,1-3.5-3.5V354.84A0,0,0,0,1,390.11,354.84Z" style="fill:#263238"></path><path d="M430.12,373.5H393.61a4,4,0,0,1-4-4V354.84a.5.5,0,0,1,.5-.5h43.51a.5.5,0,0,1,.5.5V369.5A4,4,0,0,1,430.12,373.5Zm-39.51-18.16V369.5a3,3,0,0,0,3,3h36.51a3,3,0,0,0,3-3V355.34Z" style="fill:#263238"></path><path d="M433.24,360.51H390.11a3.4,3.4,0,0,1-3.4-3.4h0a3.41,3.41,0,0,1,3.4-3.41h43.13a3.41,3.41,0,0,1,3.41,3.41h0A3.41,3.41,0,0,1,433.24,360.51Z" style="fill:#263238"></path><path d="M433.24,361H390.11a3.91,3.91,0,0,1,0-7.81h43.13a3.91,3.91,0,1,1,0,7.81Zm-43.13-6.81a2.91,2.91,0,0,0,0,5.81h43.13a2.91,2.91,0,1,0,0-5.81Z" style="fill:#263238"></path><path d="M423.14,361.17H391.82a.5.5,0,0,1-.5-.5.5.5,0,0,1,.5-.5h31.32a.5.5,0,0,1,.5.5A.5.5,0,0,1,423.14,361.17Z" style="fill:#fff"></path><path d="M431.25,361.17h-5.16a.5.5,0,0,1-.5-.5.5.5,0,0,1,.5-.5h5.16a.5.5,0,0,1,.5.5A.51.51,0,0,1,431.25,361.17Z" style="fill:#fff"></path></g><g id="freepik--Keyboard--inject-15--inject-3"><path d="M360.37,424.46H132.08c-2.39,0-3.67-.91-2.85-2l24.24-33.17c.51-.69,2.42-1.24,4.27-1.24h177c1.86,0,3.77.55,4.27,1.24l24.25,33.17C364,423.55,362.77,424.46,360.37,424.46Z" style="fill:#263238"></path><path d="M360.37,425H132.08c-1.8,0-3.08-.48-3.5-1.32a1.45,1.45,0,0,1,.2-1.58L153,388.94c.7-.95,2.95-1.47,4.71-1.47h177c1.76,0,4,.52,4.71,1.47l24.25,33.17a1.43,1.43,0,0,1,.2,1.58C363.45,424.53,362.17,425,360.37,425ZM157.74,388.57c-1.91,0-3.52.59-3.83,1l-24.24,33.16c-.2.28-.14.4-.11.45.17.34,1,.71,2.52.71H360.37c1.49,0,2.35-.37,2.53-.71,0-.05.08-.17-.12-.45l-24.24-33.16c-.31-.43-1.92-1-3.83-1Z" style="fill:#263238"></path><polygon points="248.12 388.71 237.64 388.71 237.34 393.05 248.18 393.05 248.12 388.71" style="fill:#fff"></polygon><path d="M248.18,393.6H237.35a.58.58,0,0,1-.41-.18.56.56,0,0,1-.14-.41l.29-4.33a.55.55,0,0,1,.55-.51h10.48a.55.55,0,0,1,.55.54l.06,4.33a.51.51,0,0,1-.16.39A.52.52,0,0,1,248.18,393.6Zm-10.25-1.1h9.7l0-3.24h-9.43Z" style="fill:#263238"></path><polygon points="222.83 388.71 212.35 388.71 211.19 393.05 222.03 393.05 222.83 388.71" style="fill:#fff"></polygon><path d="M222,393.6H211.19a.53.53,0,0,1-.43-.22.53.53,0,0,1-.1-.47l1.17-4.34a.53.53,0,0,1,.52-.4h10.48a.54.54,0,0,1,.42.19.53.53,0,0,1,.12.45l-.8,4.34A.56.56,0,0,1,222,393.6Zm-10.12-1.1h9.67l.6-3.24h-9.41Z" style="fill:#263238"></path><polygon points="260.76 388.71 250.28 388.71 250.42 393.05 261.26 393.05 260.76 388.71" style="fill:#fff"></polygon><path d="M261.26,393.6H250.42a.56.56,0,0,1-.55-.53l-.13-4.34a.54.54,0,0,1,.15-.4.55.55,0,0,1,.39-.16h10.48a.55.55,0,0,1,.55.48l.49,4.34a.55.55,0,0,1-.54.61ZM251,392.5h9.7l-.38-3.24h-9.42Z" style="fill:#263238"></path><polygon points="197.55 388.71 187.07 388.71 185.04 393.05 195.88 393.05 197.55 388.71" style="fill:#fff"></polygon><path d="M195.88,393.6H185a.54.54,0,0,1-.46-.26.53.53,0,0,1,0-.52l2-4.34a.56.56,0,0,1,.5-.31h10.48a.53.53,0,0,1,.45.23.58.58,0,0,1,.06.51l-1.67,4.34A.55.55,0,0,1,195.88,393.6Zm-10-1.1h9.6l1.25-3.24h-9.33Z" style="fill:#263238"></path><polygon points="210.19 388.71 199.71 388.71 198.12 393.05 208.95 393.05 210.19 388.71" style="fill:#fff"></polygon><path d="M209,393.6H198.11a.54.54,0,0,1-.44-.24.52.52,0,0,1-.07-.5l1.6-4.34a.54.54,0,0,1,.51-.35h10.48a.58.58,0,0,1,.44.21.59.59,0,0,1,.09.48l-1.24,4.34A.55.55,0,0,1,209,393.6Zm-10-1.1h9.64l.93-3.24h-9.38Z" style="fill:#263238"></path><polygon points="171.96 393.05 182.8 393.05 184.91 388.71 174.43 388.71 171.96 393.05" style="fill:#fff"></polygon><path d="M182.8,393.6H172a.57.57,0,0,1-.47-.27.54.54,0,0,1,0-.55l2.46-4.34a.55.55,0,0,1,.48-.27h10.48a.54.54,0,0,1,.46.25.55.55,0,0,1,0,.53l-2.11,4.34A.54.54,0,0,1,182.8,393.6Zm-9.9-1.1h9.56l1.57-3.24h-9.29Z" style="fill:#263238"></path><polygon points="235.48 388.71 225 388.71 224.27 393.05 235.11 393.05 235.48 388.71" style="fill:#fff"></polygon><path d="M235.11,393.6H224.27a.55.55,0,0,1-.54-.64l.73-4.34a.54.54,0,0,1,.54-.45h10.48a.54.54,0,0,1,.4.17.55.55,0,0,1,.14.42l-.37,4.34A.54.54,0,0,1,235.11,393.6Zm-10.19-1.1h9.68l.28-3.24h-9.42Z" style="fill:#263238"></path><polygon points="273.4 388.71 262.93 388.71 263.5 393.05 274.34 393.05 273.4 388.71" style="fill:#fff"></polygon><path d="M274.34,393.6H263.5a.54.54,0,0,1-.54-.48l-.58-4.34a.57.57,0,0,1,.13-.43.56.56,0,0,1,.42-.18h10.48a.55.55,0,0,1,.53.43l.93,4.33a.5.5,0,0,1-.11.46A.54.54,0,0,1,274.34,393.6ZM264,392.5h9.68l-.7-3.24h-9.41Z" style="fill:#263238"></path><polygon points="172.26 388.71 156.31 388.71 153.22 393.05 169.72 393.05 172.26 388.71" style="fill:#fff"></polygon><path d="M169.72,393.6h-16.5a.57.57,0,0,1-.49-.3.58.58,0,0,1,0-.57l3.09-4.33a.53.53,0,0,1,.45-.23h15.95a.55.55,0,0,1,.48.27.57.57,0,0,1,0,.55l-2.53,4.34A.57.57,0,0,1,169.72,393.6Zm-15.44-1.1h15.13l1.9-3.24H156.59Z" style="fill:#263238"></path><polygon points="326.14 388.71 328.88 393.05 340.07 393.05 336.96 388.71 326.14 388.71" style="fill:#fff"></polygon><path d="M340.07,393.6H328.88a.55.55,0,0,1-.46-.26L325.68,389a.54.54,0,0,1,.46-.84H337a.54.54,0,0,1,.44.22l3.12,4.34a.55.55,0,0,1-.45.87Zm-10.89-1.1H339l-2.32-3.24h-9.55Z" style="fill:#263238"></path><polygon points="323.98 388.71 313.5 388.71 315.81 393.05 326.64 393.05 323.98 388.71" style="fill:#fff"></polygon><path d="M326.64,393.6H315.81a.55.55,0,0,1-.49-.29L313,389a.55.55,0,0,1,.49-.8H324a.52.52,0,0,1,.46.26l2.67,4.33a.56.56,0,0,1,0,.56A.55.55,0,0,1,326.64,393.6Zm-10.51-1.1h9.53l-2-3.24h-9.26Z" style="fill:#263238"></path><polygon points="311.33 388.71 300.85 388.71 302.73 393.05 313.57 393.05 311.33 388.71" style="fill:#fff"></polygon><path d="M313.57,393.6H302.73a.54.54,0,0,1-.5-.33l-1.88-4.34a.55.55,0,0,1,.5-.76h10.48a.54.54,0,0,1,.49.29l2.24,4.34a.55.55,0,0,1,0,.53A.55.55,0,0,1,313.57,393.6Zm-10.48-1.1h9.58L311,389.26h-9.31Z" style="fill:#263238"></path><polygon points="286.05 388.71 275.57 388.71 276.57 393.05 287.41 393.05 286.05 388.71" style="fill:#fff"></polygon><path d="M287.41,393.6H276.58a.56.56,0,0,1-.54-.43l-1-4.33a.56.56,0,0,1,.1-.47.54.54,0,0,1,.43-.2h10.48a.54.54,0,0,1,.52.38l1.37,4.33a.57.57,0,0,1-.08.49A.57.57,0,0,1,287.41,393.6ZM277,392.5h9.66l-1-3.24h-9.39Z" style="fill:#263238"></path><polygon points="298.69 388.71 288.21 388.71 289.65 393.05 300.49 393.05 298.69 388.71" style="fill:#fff"></polygon><path d="M300.49,393.6H289.65a.56.56,0,0,1-.52-.38l-1.44-4.33a.56.56,0,0,1,.08-.5.54.54,0,0,1,.44-.22h10.48a.56.56,0,0,1,.51.33l1.8,4.34a.54.54,0,0,1-.05.51A.56.56,0,0,1,300.49,393.6Zm-10.44-1.1h9.62l-1.34-3.24H289Z" style="fill:#263238"></path><polygon points="215.31 393.48 204.41 393.48 202.92 398.15 214.21 398.15 215.31 393.48" style="fill:#fff"></polygon><path d="M214.21,398.7H202.92a.54.54,0,0,1-.44-.22.57.57,0,0,1-.08-.49l1.49-4.68a.54.54,0,0,1,.52-.38h10.9a.54.54,0,0,1,.53.67l-1.1,4.68A.54.54,0,0,1,214.21,398.7Zm-10.54-1.09h10.1l.85-3.58h-9.81Z" style="fill:#263238"></path><polygon points="228.45 393.48 217.56 393.48 216.53 398.15 227.82 398.15 228.45 393.48" style="fill:#fff"></polygon><path d="M227.82,398.7H216.53a.53.53,0,0,1-.42-.2A.52.52,0,0,1,216,398l1-4.68a.55.55,0,0,1,.53-.43h10.9a.55.55,0,0,1,.55.62l-.64,4.68A.55.55,0,0,1,227.82,398.7Zm-10.61-1.09h10.13l.49-3.58H218Z" style="fill:#263238"></path><polygon points="241.6 393.48 230.7 393.48 230.14 398.15 241.43 398.15 241.6 393.48" style="fill:#fff"></polygon><path d="M241.43,398.7H230.14a.59.59,0,0,1-.41-.18.56.56,0,0,1-.13-.43l.55-4.68a.56.56,0,0,1,.55-.48h10.9a.55.55,0,0,1,.54.57l-.16,4.67A.54.54,0,0,1,241.43,398.7Zm-10.67-1.09H240.9L241,394h-9.85Z" style="fill:#263238"></path><polygon points="189.02 393.48 178.13 393.48 175.7 398.15 186.98 398.15 189.02 393.48" style="fill:#fff"></polygon><path d="M187,398.7H175.7a.56.56,0,0,1-.47-.26.55.55,0,0,1,0-.54l2.43-4.67a.53.53,0,0,1,.49-.3H189a.53.53,0,0,1,.46.25.56.56,0,0,1,.05.52l-2,4.67A.56.56,0,0,1,187,398.7Zm-10.38-1.09h10l1.56-3.58h-9.73Z" style="fill:#263238"></path><polygon points="162.09 398.15 173.37 398.15 175.88 393.48 164.98 393.48 162.09 398.15" style="fill:#fff"></polygon><path d="M173.37,398.7H162.08a.54.54,0,0,1-.47-.28.52.52,0,0,1,0-.55l2.9-4.68a.54.54,0,0,1,.46-.26h10.9a.55.55,0,0,1,.48.81l-2.51,4.67A.54.54,0,0,1,173.37,398.7Zm-10.3-1.09h10L175,394h-9.67Z" style="fill:#263238"></path><polygon points="254.74 393.48 243.84 393.48 243.76 398.15 255.04 398.15 254.74 393.48" style="fill:#fff"></polygon><path d="M255,398.7H243.76a.55.55,0,0,1-.55-.56l.08-4.67a.55.55,0,0,1,.55-.54h10.9a.56.56,0,0,1,.55.51l.3,4.68a.56.56,0,0,1-.15.41A.54.54,0,0,1,255,398.7Zm-10.73-1.09h10.15l-.23-3.58h-9.85Z" style="fill:#263238"></path><polygon points="202.17 393.48 191.27 393.48 189.31 398.15 200.59 398.15 202.17 393.48" style="fill:#fff"></polygon><path d="M200.6,398.7H189.31a.56.56,0,0,1-.46-.24.57.57,0,0,1,0-.52l2-4.67a.55.55,0,0,1,.51-.34h10.9a.55.55,0,0,1,.44.23.57.57,0,0,1,.08.49l-1.58,4.68A.54.54,0,0,1,200.6,398.7Zm-10.47-1.09H200.2l1.2-3.58h-9.77Z" style="fill:#263238"></path><polygon points="320.45 393.48 309.56 393.48 311.81 398.15 323.1 398.15 320.45 393.48" style="fill:#fff"></polygon><path d="M323.1,398.7H311.81a.54.54,0,0,1-.49-.31l-2.26-4.67a.55.55,0,0,1,.5-.79h10.89a.56.56,0,0,1,.48.28l2.65,4.67a.59.59,0,0,1,0,.55A.55.55,0,0,1,323.1,398.7Zm-10.94-1.09h10l-2-3.58h-9.7Z" style="fill:#263238"></path><polygon points="162.74 393.48 152.91 393.48 149.59 398.15 159.76 398.15 162.74 393.48" style="fill:#fff"></polygon><path d="M159.76,398.7H149.59a.54.54,0,0,1-.49-.29.55.55,0,0,1,0-.57l3.33-4.68a.56.56,0,0,1,.45-.23h9.82a.54.54,0,0,1,.46.84l-3,4.68A.53.53,0,0,1,159.76,398.7Zm-9.11-1.09h8.81l2.28-3.58H153.2Z" style="fill:#263238"></path><polygon points="322.7 393.48 325.43 398.15 343.74 398.15 340.38 393.48 322.7 393.48" style="fill:#fff"></polygon><path d="M343.74,398.7H325.43a.55.55,0,0,1-.48-.27l-2.72-4.68a.55.55,0,0,1,0-.54.56.56,0,0,1,.48-.28h17.68a.54.54,0,0,1,.44.23l3.36,4.67a.54.54,0,0,1,0,.57A.53.53,0,0,1,343.74,398.7Zm-18-1.09h16.93L340.1,394H323.65Z" style="fill:#263238"></path><polygon points="307.31 393.48 296.41 393.48 298.2 398.15 309.49 398.15 307.31 393.48" style="fill:#fff"></polygon><path d="M309.49,398.7H298.2a.55.55,0,0,1-.51-.35l-1.79-4.68a.56.56,0,0,1,.06-.5.54.54,0,0,1,.45-.24h10.9a.55.55,0,0,1,.5.32l2.18,4.67a.58.58,0,0,1,0,.53A.53.53,0,0,1,309.49,398.7Zm-10.91-1.09h10.05L307,394h-9.75Z" style="fill:#263238"></path><polygon points="267.88 393.48 256.98 393.48 257.37 398.15 268.65 398.15 267.88 393.48" style="fill:#fff"></polygon><path d="M268.65,398.7H257.37a.55.55,0,0,1-.55-.5l-.38-4.68a.56.56,0,0,1,.14-.41.57.57,0,0,1,.4-.18h10.9a.55.55,0,0,1,.54.46l.77,4.68a.51.51,0,0,1-.12.44A.54.54,0,0,1,268.65,398.7Zm-10.78-1.09H268l-.59-3.58h-9.84Z" style="fill:#263238"></path><polygon points="281.02 393.48 270.13 393.48 270.98 398.15 282.27 398.15 281.02 393.48" style="fill:#fff"></polygon><path d="M282.27,398.7H271a.55.55,0,0,1-.54-.45l-.85-4.67a.52.52,0,0,1,.12-.45.52.52,0,0,1,.42-.2H281a.55.55,0,0,1,.53.41l1.24,4.67a.54.54,0,0,1-.52.69Zm-10.83-1.09h10.11L280.6,394h-9.82Z" style="fill:#263238"></path><polygon points="294.17 393.48 283.27 393.48 284.59 398.15 295.88 398.15 294.17 393.48" style="fill:#fff"></polygon><path d="M295.88,398.7H284.59a.56.56,0,0,1-.53-.4l-1.32-4.67a.58.58,0,0,1,.09-.48.56.56,0,0,1,.44-.22h10.9a.54.54,0,0,1,.51.36l1.71,4.68a.56.56,0,0,1-.06.5A.57.57,0,0,1,295.88,398.7ZM285,397.61h10.09l-1.3-3.58H284Z" style="fill:#263238"></path><polygon points="276.11 416.77 201.34 416.77 199.44 423.3 277.37 423.3 276.11 416.77" style="fill:#fff"></polygon><path d="M277.37,423.85H199.44a.56.56,0,0,1-.44-.22.55.55,0,0,1-.08-.48l1.89-6.53a.55.55,0,0,1,.53-.39H276.1a.54.54,0,0,1,.54.44l1.27,6.53a.57.57,0,0,1-.12.45A.53.53,0,0,1,277.37,423.85Zm-77.2-1.1H276.7l-1.05-5.43h-73.9Z" style="fill:#263238"></path><polygon points="198.69 416.77 182.01 416.77 179.3 423.3 196.69 423.3 198.69 416.77" style="fill:#fff"></polygon><path d="M196.69,423.85H179.3a.53.53,0,0,1-.46-.25.54.54,0,0,1-.05-.51l2.72-6.53a.54.54,0,0,1,.5-.33h16.68a.53.53,0,0,1,.44.22.52.52,0,0,1,.09.48l-2,6.53A.55.55,0,0,1,196.69,423.85Zm-16.57-1.1h16.16l1.67-5.43H182.38Z" style="fill:#263238"></path><polygon points="292.45 416.77 278.75 416.77 280.12 423.3 294.4 423.3 292.45 416.77" style="fill:#fff"></polygon><path d="M294.4,423.85H280.12a.54.54,0,0,1-.53-.44l-1.38-6.52a.57.57,0,0,1,.11-.46.55.55,0,0,1,.43-.2h13.7a.53.53,0,0,1,.52.39l2,6.52a.54.54,0,0,1-.09.49A.53.53,0,0,1,294.4,423.85Zm-13.83-1.1h13.1L292,417.32H279.42Z" style="fill:#263238"></path><polygon points="147.58 423.3 161.11 423.3 164.56 416.77 151.58 416.77 147.58 423.3" style="fill:#fff"></polygon><path d="M161.11,423.85H147.58a.56.56,0,0,1-.48-.28.59.59,0,0,1,0-.56l4-6.52a.53.53,0,0,1,.46-.26h13a.55.55,0,0,1,.49.8l-3.45,6.53A.55.55,0,0,1,161.11,423.85Zm-12.55-1.1h12.22l2.87-5.43H151.89Z" style="fill:#263238"></path><polygon points="179.37 416.77 167.21 416.77 163.87 423.3 176.54 423.3 179.37 416.77" style="fill:#fff"></polygon><path d="M176.54,423.85H163.87a.56.56,0,0,1-.47-.26.55.55,0,0,1,0-.54l3.34-6.53a.54.54,0,0,1,.49-.29h12.16a.57.57,0,0,1,.46.24.56.56,0,0,1,0,.52L177,423.52A.54.54,0,0,1,176.54,423.85Zm-11.78-1.1h11.42l2.35-5.43h-11Z" style="fill:#263238"></path><polygon points="148.94 416.77 136.34 416.77 131.69 423.3 144.83 423.3 148.94 416.77" style="fill:#fff"></polygon><path d="M144.83,423.85H131.69a.57.57,0,0,1-.49-.3.58.58,0,0,1,0-.57l4.65-6.52a.53.53,0,0,1,.45-.23h12.6a.54.54,0,0,1,.48.28.56.56,0,0,1,0,.56l-4.11,6.52A.55.55,0,0,1,144.83,423.85Zm-12.08-1.1h11.77l3.43-5.43H136.62Z" style="fill:#263238"></path><polygon points="308.8 416.77 295.09 416.77 297.16 423.3 311.44 423.3 308.8 416.77" style="fill:#fff"></polygon><path d="M311.44,423.85H297.16a.55.55,0,0,1-.52-.38l-2.07-6.53a.57.57,0,0,1,.08-.49.54.54,0,0,1,.44-.22H308.8a.53.53,0,0,1,.5.34l2.65,6.52a.56.56,0,0,1-.51.76Zm-13.88-1.1h13.07l-2.2-5.43H295.84Z" style="fill:#263238"></path><polygon points="344.13 416.77 348.27 423.3 361.8 423.3 357.11 416.77 344.13 416.77" style="fill:#fff"></polygon><path d="M361.79,423.85H348.27a.54.54,0,0,1-.46-.26l-4.14-6.52a.54.54,0,0,1,.46-.84h13a.54.54,0,0,1,.44.22l4.69,6.53a.54.54,0,0,1,0,.57A.55.55,0,0,1,361.79,423.85Zm-13.22-1.1h12.16l-3.9-5.43h-11.7Z" style="fill:#263238"></path><polygon points="325.14 416.77 311.44 416.77 314.2 423.3 328.48 423.3 325.14 416.77" style="fill:#fff"></polygon><path d="M328.48,423.85H314.2a.55.55,0,0,1-.51-.34L310.93,417a.55.55,0,0,1,.51-.76h13.7a.54.54,0,0,1,.49.29l3.33,6.53a.55.55,0,0,1,0,.54A.54.54,0,0,1,328.48,423.85Zm-13.92-1.1h13l-2.77-5.43H312.27Z" style="fill:#263238"></path><polygon points="341.49 416.77 327.79 416.77 331.23 423.3 345.51 423.3 341.49 416.77" style="fill:#fff"></polygon><path d="M345.51,423.85H331.23a.54.54,0,0,1-.48-.29L327.3,417a.55.55,0,0,1,.49-.8h13.7a.52.52,0,0,1,.46.26l4,6.52a.56.56,0,0,1,0,.56A.55.55,0,0,1,345.51,423.85Zm-13.95-1.1h13l-3.35-5.43H328.69Z" style="fill:#263238"></path><polygon points="230.36 410.21 218.13 410.21 216.99 416.18 229.72 416.18 230.36 410.21" style="fill:#fff"></polygon><path d="M229.72,416.73H217a.56.56,0,0,1-.42-.2.53.53,0,0,1-.12-.45l1.14-6a.55.55,0,0,1,.54-.44h12.23a.59.59,0,0,1,.41.18.56.56,0,0,1,.13.43l-.64,6A.54.54,0,0,1,229.72,416.73Zm-12.07-1.1h11.58l.52-4.88H218.58Z" style="fill:#263238"></path><polygon points="259.89 410.21 247.66 410.21 247.71 416.18 260.44 416.18 259.89 410.21" style="fill:#fff"></polygon><path d="M260.44,416.73H247.71a.54.54,0,0,1-.54-.55l-.06-6a.54.54,0,0,1,.16-.39.55.55,0,0,1,.39-.16h12.23a.54.54,0,0,1,.54.5l.56,6a.56.56,0,0,1-.15.42A.55.55,0,0,1,260.44,416.73Zm-12.18-1.1h11.58l-.45-4.88H248.21Z" style="fill:#263238"></path><polygon points="215.59 410.21 203.36 410.21 201.63 416.18 214.36 416.18 215.59 410.21" style="fill:#fff"></polygon><path d="M214.36,416.73H201.63a.56.56,0,0,1-.44-.22.59.59,0,0,1-.09-.48l1.74-6a.54.54,0,0,1,.52-.39h12.23a.54.54,0,0,1,.43.2.58.58,0,0,1,.11.46l-1.24,6A.55.55,0,0,1,214.36,416.73Zm-12-1.1h11.55l1-4.88H203.77Z" style="fill:#263238"></path><polygon points="186.06 410.21 173.83 410.21 170.91 416.18 183.63 416.18 186.06 410.21" style="fill:#fff"></polygon><path d="M183.63,416.73H170.91a.56.56,0,0,1-.47-.26.53.53,0,0,1,0-.53l2.92-6a.54.54,0,0,1,.49-.31h12.24a.54.54,0,0,1,.5.75l-2.43,6A.55.55,0,0,1,183.63,416.73Zm-11.84-1.1h11.48l2-4.88H174.17Z" style="fill:#263238"></path><polygon points="155.55 416.18 168.27 416.18 171.3 410.21 159.07 410.21 155.55 416.18" style="fill:#fff"></polygon><path d="M168.27,416.73H155.55a.56.56,0,0,1-.48-.28.54.54,0,0,1,0-.55l3.52-6a.52.52,0,0,1,.47-.27H171.3a.56.56,0,0,1,.47.26.55.55,0,0,1,0,.54l-3,6A.55.55,0,0,1,168.27,416.73Zm-11.76-1.1h11.43l2.47-4.88h-11Z" style="fill:#263238"></path><polygon points="200.83 410.21 188.6 410.21 186.27 416.18 199 416.18 200.83 410.21" style="fill:#fff"></polygon><path d="M199,416.73H186.27a.54.54,0,0,1-.45-.24.52.52,0,0,1-.06-.51l2.33-6a.54.54,0,0,1,.51-.35h12.23a.54.54,0,0,1,.44.22.57.57,0,0,1,.08.49l-1.83,6A.55.55,0,0,1,199,416.73Zm-11.93-1.1h11.52l1.5-4.88H189Z" style="fill:#263238"></path><polygon points="245.12 410.21 232.89 410.21 232.35 416.18 245.08 416.18 245.12 410.21" style="fill:#fff"></polygon><path d="M245.08,416.73H232.35a.55.55,0,0,1-.4-.18.51.51,0,0,1-.14-.42l.54-6a.54.54,0,0,1,.54-.5h12.23a.55.55,0,0,1,.39.16.53.53,0,0,1,.16.39l0,6A.56.56,0,0,1,245.08,416.73ZM233,415.63h11.59l0-4.88H233.39Z" style="fill:#263238"></path><polygon points="156.54 410.21 141.01 410.21 136.76 416.18 152.91 416.18 156.54 410.21" style="fill:#fff"></polygon><path d="M152.91,416.73H136.76a.55.55,0,0,1-.45-.87l4.25-6a.57.57,0,0,1,.45-.23h15.53a.54.54,0,0,1,.47.28.52.52,0,0,1,0,.55l-3.62,6A.55.55,0,0,1,152.91,416.73Zm-15.09-1.1H152.6l3-4.88H141.29Z" style="fill:#263238"></path><polygon points="318.95 410.21 306.71 410.21 309.16 416.18 321.88 416.18 318.95 410.21" style="fill:#fff"></polygon><path d="M321.88,416.73H309.16a.55.55,0,0,1-.51-.34l-2.44-6a.54.54,0,0,1,.5-.75H319a.55.55,0,0,1,.49.3l2.94,6a.55.55,0,0,1-.5.79Zm-12.36-1.1H321l-2.39-4.88H307.53Z" style="fill:#263238"></path><polygon points="321.48 410.21 324.52 416.18 356.68 416.18 352.39 410.21 321.48 410.21" style="fill:#fff"></polygon><path d="M356.68,416.73H324.52a.55.55,0,0,1-.49-.3l-3-6a.55.55,0,0,1,0-.54.56.56,0,0,1,.47-.26h30.91a.55.55,0,0,1,.45.23l4.29,6a.56.56,0,0,1,0,.57A.55.55,0,0,1,356.68,416.73Zm-31.83-1.1h30.76l-3.5-4.88H322.37Z" style="fill:#263238"></path><polygon points="274.65 410.21 262.42 410.21 263.07 416.18 275.8 416.18 274.65 410.21" style="fill:#fff"></polygon><path d="M275.8,416.73H263.07a.54.54,0,0,1-.54-.49l-.65-6a.56.56,0,0,1,.13-.43.58.58,0,0,1,.41-.18h12.23a.55.55,0,0,1,.54.44l1.15,6a.53.53,0,0,1-.12.45A.56.56,0,0,1,275.8,416.73Zm-12.23-1.1h11.57l-.94-4.88H263Z" style="fill:#263238"></path><polygon points="289.42 410.21 277.18 410.21 278.44 416.18 291.16 416.18 289.42 410.21" style="fill:#fff"></polygon><path d="M291.16,416.73H278.43a.54.54,0,0,1-.53-.44l-1.25-6a.55.55,0,0,1,.11-.46.53.53,0,0,1,.42-.2h12.24a.55.55,0,0,1,.52.39l1.75,6a.55.55,0,0,1-.09.48A.54.54,0,0,1,291.16,416.73Zm-12.28-1.1h11.55L289,410.75H277.86Z" style="fill:#263238"></path><polygon points="304.18 410.21 291.95 410.21 293.8 416.18 306.52 416.18 304.18 410.21" style="fill:#fff"></polygon><path d="M306.52,416.73H293.8a.56.56,0,0,1-.53-.39l-1.85-6a.54.54,0,0,1,.09-.49.53.53,0,0,1,.44-.22h12.23a.54.54,0,0,1,.51.35l2.34,6a.54.54,0,0,1,0,.51A.57.57,0,0,1,306.52,416.73Zm-12.32-1.1h11.52l-1.91-4.88H292.69Z" style="fill:#263238"></path><polygon points="238.11 404.18 226.34 404.18 225.57 409.66 237.8 409.66 238.11 404.18" style="fill:#fff"></polygon><path d="M237.8,410.21H225.57a.55.55,0,0,1-.41-.19.57.57,0,0,1-.13-.43l.77-5.49a.55.55,0,0,1,.54-.47h11.77a.54.54,0,0,1,.4.17.56.56,0,0,1,.15.41l-.31,5.48A.56.56,0,0,1,237.8,410.21Zm-11.6-1.1h11.08l.25-4.39H226.82Z" style="fill:#263238"></path><polygon points="252.31 404.18 240.54 404.18 240.32 409.66 252.55 409.66 252.31 404.18" style="fill:#fff"></polygon><path d="M252.55,410.21H240.32a.52.52,0,0,1-.39-.17.55.55,0,0,1-.16-.4l.22-5.49a.56.56,0,0,1,.55-.52h11.77a.55.55,0,0,1,.55.52l.23,5.49a.5.5,0,0,1-.15.4A.52.52,0,0,1,252.55,410.21Zm-11.66-1.1H252l-.19-4.39H241.07Z" style="fill:#263238"></path><polygon points="223.91 404.18 212.14 404.18 210.83 409.66 223.05 409.66 223.91 404.18" style="fill:#fff"></polygon><path d="M223.05,410.21H210.83a.55.55,0,0,1-.43-.21.53.53,0,0,1-.11-.47l1.32-5.48a.54.54,0,0,1,.53-.42h11.77a.55.55,0,0,1,.42.19.54.54,0,0,1,.13.44l-.87,5.49A.55.55,0,0,1,223.05,410.21Zm-11.53-1.1h11.06l.69-4.39H212.58Z" style="fill:#263238"></path><polygon points="209.72 404.18 197.95 404.18 196.08 409.66 208.3 409.66 209.72 404.18" style="fill:#fff"></polygon><path d="M208.3,410.21H196.08a.55.55,0,0,1-.45-.23.54.54,0,0,1-.07-.49l1.87-5.49a.54.54,0,0,1,.52-.37h11.77a.55.55,0,0,1,.43.21.56.56,0,0,1,.1.47l-1.42,5.49A.55.55,0,0,1,208.3,410.21Zm-11.46-1.1h11l1.13-4.39H198.34Z" style="fill:#263238"></path><polygon points="195.52 404.18 183.75 404.18 181.33 409.66 193.56 409.66 195.52 404.18" style="fill:#fff"></polygon><path d="M193.56,410.21H181.33a.54.54,0,0,1-.46-.25.53.53,0,0,1,0-.52l2.42-5.48a.54.54,0,0,1,.5-.33h11.77a.55.55,0,0,1,.45.23.55.55,0,0,1,.06.5l-2,5.49A.55.55,0,0,1,193.56,410.21Zm-11.39-1.1h11l1.57-4.39H184.1Z" style="fill:#263238"></path><polygon points="166.58 409.66 178.81 409.66 181.32 404.18 169.55 404.18 166.58 409.66" style="fill:#fff"></polygon><path d="M178.81,410.21H166.58a.55.55,0,0,1-.48-.81l3-5.48a.54.54,0,0,1,.48-.29h11.77a.53.53,0,0,1,.46.25.56.56,0,0,1,0,.52l-2.51,5.49A.56.56,0,0,1,178.81,410.21Zm-11.31-1.1h11l2-4.39H169.88Z" style="fill:#263238"></path><polygon points="266.51 404.18 254.74 404.18 255.07 409.66 267.3 409.66 266.51 404.18" style="fill:#fff"></polygon><path d="M267.29,410.21H255.07a.56.56,0,0,1-.55-.51l-.33-5.49a.55.55,0,0,1,.55-.58h11.77a.55.55,0,0,1,.54.47l.79,5.48a.58.58,0,0,1-.13.44A.57.57,0,0,1,267.29,410.21Zm-11.71-1.1h11.08l-.62-4.39H255.32Z" style="fill:#263238"></path><polygon points="167.12 404.18 145.3 404.18 141.4 409.66 164.06 409.66 167.12 404.18" style="fill:#fff"></polygon><path d="M164.06,410.21H141.4a.53.53,0,0,1-.49-.3.56.56,0,0,1,0-.57l3.91-5.48a.52.52,0,0,1,.44-.23h21.82a.55.55,0,0,1,.48.81l-3.06,5.49A.56.56,0,0,1,164.06,410.21Zm-21.6-1.1h21.28l2.45-4.39H145.58Z" style="fill:#263238"></path><polygon points="337.5 404.18 325.73 404.18 328.81 409.66 341.03 409.66 337.5 404.18" style="fill:#fff"></polygon><path d="M341,410.21H328.81a.56.56,0,0,1-.48-.28l-3.08-5.49a.55.55,0,0,1,.48-.81H337.5a.53.53,0,0,1,.46.25l3.54,5.49a.56.56,0,0,1-.47.84Zm-11.9-1.1H340l-2.83-4.39H326.67Z" style="fill:#263238"></path><polygon points="280.71 404.18 268.94 404.18 269.82 409.66 282.04 409.66 280.71 404.18" style="fill:#fff"></polygon><path d="M282,410.21H269.82a.55.55,0,0,1-.54-.46l-.88-5.49a.54.54,0,0,1,.12-.44.57.57,0,0,1,.42-.19h11.77a.54.54,0,0,1,.53.42l1.34,5.48a.53.53,0,0,1-.11.47A.55.55,0,0,1,282,410.21Zm-11.76-1.1h11.07l-1.07-4.39h-10.7Z" style="fill:#263238"></path><polygon points="323.3 404.18 311.53 404.18 314.06 409.66 326.29 409.66 323.3 404.18" style="fill:#fff"></polygon><path d="M326.29,410.21H314.06a.56.56,0,0,1-.5-.32L311,404.41a.55.55,0,0,1,0-.53.54.54,0,0,1,.46-.25H323.3a.58.58,0,0,1,.49.28l3,5.49a.55.55,0,0,1-.48.81Zm-11.88-1.1h11L323,404.72H312.39Z" style="fill:#263238"></path><polygon points="294.91 404.18 283.14 404.18 284.56 409.66 296.79 409.66 294.91 404.18" style="fill:#fff"></polygon><path d="M296.79,410.21H284.56a.56.56,0,0,1-.53-.41l-1.42-5.49a.53.53,0,0,1,.09-.47.58.58,0,0,1,.44-.21h11.77a.54.54,0,0,1,.51.37l1.89,5.48a.55.55,0,0,1-.07.5A.57.57,0,0,1,296.79,410.21Zm-11.8-1.1h11l-1.5-4.39H283.84Z" style="fill:#263238"></path><polygon points="309.11 404.18 297.33 404.18 299.31 409.66 311.54 409.66 309.11 404.18" style="fill:#fff"></polygon><path d="M311.54,410.21H299.31a.54.54,0,0,1-.51-.36l-2-5.49a.55.55,0,0,1,.51-.73h11.78a.56.56,0,0,1,.5.32l2.43,5.49a.56.56,0,0,1,0,.52A.54.54,0,0,1,311.54,410.21Zm-11.84-1.1h11l-1.95-4.39H298.11Z" style="fill:#263238"></path><polygon points="221.88 403.67 233.37 403.67 233.83 398.62 222.75 398.62 221.88 403.67" style="fill:#fff"></polygon><path d="M233.37,404.22H221.88a.55.55,0,0,1-.42-.19.57.57,0,0,1-.12-.45l.87-5.06a.54.54,0,0,1,.54-.45h11.08a.54.54,0,0,1,.41.18.57.57,0,0,1,.14.42l-.46,5.05A.55.55,0,0,1,233.37,404.22Zm-10.84-1.09h10.34l.36-4h-10Z" style="fill:#263238"></path><polygon points="207.97 403.67 219.46 403.67 220.42 398.62 209.33 398.62 207.97 403.67" style="fill:#fff"></polygon><path d="M219.46,404.22H208a.54.54,0,0,1-.53-.69l1.37-5.06a.55.55,0,0,1,.52-.4h11.09a.55.55,0,0,1,.42.2.55.55,0,0,1,.11.45l-.95,5.06A.56.56,0,0,1,219.46,404.22Zm-10.78-1.09H219l.76-4h-10Z" style="fill:#263238"></path><polygon points="235.79 403.67 247.28 403.67 247.25 398.62 236.16 398.62 235.79 403.67" style="fill:#fff"></polygon><path d="M247.28,404.22H235.79a.53.53,0,0,1-.54-.59l.37-5.05a.55.55,0,0,1,.54-.51h11.09a.54.54,0,0,1,.54.54l0,5.06a.51.51,0,0,1-.16.39A.55.55,0,0,1,247.28,404.22Zm-10.9-1.09h10.35l0-4h-10Z" style="fill:#263238"></path><polygon points="166.23 403.67 177.72 403.67 180.17 398.62 169.09 398.62 166.23 403.67" style="fill:#fff"></polygon><path d="M177.72,404.22H166.23a.55.55,0,0,1-.48-.27.54.54,0,0,1,0-.55l2.86-5a.56.56,0,0,1,.48-.28h11.08a.57.57,0,0,1,.47.26.53.53,0,0,1,0,.53l-2.45,5.05A.54.54,0,0,1,177.72,404.22Zm-10.55-1.09h10.21l1.92-4h-9.89Z" style="fill:#263238"></path><polygon points="180.14 403.67 191.63 403.67 193.59 398.62 182.5 398.62 180.14 403.67" style="fill:#fff"></polygon><path d="M191.63,404.22H180.14a.53.53,0,0,1-.46-.25.56.56,0,0,1,0-.53l2.37-5.06a.54.54,0,0,1,.49-.31h11.09a.54.54,0,0,1,.45.24.56.56,0,0,1,.06.5l-2,5.06A.54.54,0,0,1,191.63,404.22ZM181,403.13h10.26l1.53-4h-9.94Z" style="fill:#263238"></path><polygon points="249.7 403.67 261.2 403.67 260.66 398.62 249.58 398.62 249.7 403.67" style="fill:#fff"></polygon><path d="M261.2,404.22H249.7a.54.54,0,0,1-.54-.53l-.13-5.06a.55.55,0,0,1,.55-.56h11.08a.55.55,0,0,1,.55.49l.53,5.06a.54.54,0,0,1-.13.42A.55.55,0,0,1,261.2,404.22Zm-11-1.09h10.35l-.42-4h-10Z" style="fill:#263238"></path><polygon points="194.05 403.67 205.54 403.67 207 398.62 195.92 398.62 194.05 403.67" style="fill:#fff"></polygon><path d="M205.55,404.22h-11.5a.54.54,0,0,1-.51-.74l1.87-5.05a.53.53,0,0,1,.51-.36H207a.55.55,0,0,1,.53.7l-1.46,5.06A.55.55,0,0,1,205.55,404.22Zm-10.71-1.09h10.29l1.14-4h-10Z" style="fill:#263238"></path><path d="M344.07,398.62H332.4l3.2,5.05h2.85a1.46,1.46,0,0,1,1.06.35l3.75,5.7h8.6Z" style="fill:#fff"></path><path d="M351.86,410.27h-8.6a.55.55,0,0,1-.45-.25l-3.75-5.7h0a2,2,0,0,0-.6-.1H335.6a.54.54,0,0,1-.46-.25l-3.2-5.06a.56.56,0,0,1,0-.56.57.57,0,0,1,.48-.28h11.67a.56.56,0,0,1,.45.23l7.79,11.1a.56.56,0,0,1,0,.57A.57.57,0,0,1,351.86,410.27Zm-8.3-1.1h7.25l-7-10H333.4l2.5,4h2.55a1.94,1.94,0,0,1,1.52.59Z" style="fill:#263238"></path><polygon points="305.36 403.67 316.85 403.67 314.32 398.62 303.24 398.62 305.36 403.67" style="fill:#fff"></polygon><path d="M316.85,404.22H305.36a.56.56,0,0,1-.51-.33l-2.11-5.06a.54.54,0,0,1,0-.52.57.57,0,0,1,.46-.24h11.08a.55.55,0,0,1,.49.3l2.53,5.06a.53.53,0,0,1,0,.53A.56.56,0,0,1,316.85,404.22Zm-11.13-1.09H316l-2-4h-9.92Z" style="fill:#263238"></path><polygon points="319.27 403.67 333.18 403.67 330.07 398.62 316.66 398.62 319.27 403.67" style="fill:#fff"></polygon><path d="M333.18,404.22H319.27a.54.54,0,0,1-.49-.3l-2.61-5.05a.55.55,0,0,1,.49-.8h13.41a.56.56,0,0,1,.47.26l3.11,5.06a.54.54,0,0,1,0,.55A.56.56,0,0,1,333.18,404.22Zm-13.58-1.09h12.6l-2.43-4H317.56Z" style="fill:#263238"></path><polygon points="145.66 403.67 163.81 403.67 166.76 398.62 149.26 398.62 145.66 403.67" style="fill:#fff"></polygon><path d="M163.81,404.22H145.66a.55.55,0,0,1-.45-.86l3.6-5.06a.56.56,0,0,1,.45-.23h17.5a.55.55,0,0,1,.47.82L164.28,404A.55.55,0,0,1,163.81,404.22Zm-17.09-1.09h16.77l2.31-4H149.54Z" style="fill:#263238"></path><polygon points="263.62 403.67 275.11 403.67 274.08 398.62 263 398.62 263.62 403.67" style="fill:#fff"></polygon><path d="M275.11,404.22H263.62a.55.55,0,0,1-.55-.48l-.62-5.06a.57.57,0,0,1,.13-.43.6.6,0,0,1,.42-.18h11.08a.54.54,0,0,1,.53.44l1,5.05a.57.57,0,0,1-.11.46A.55.55,0,0,1,275.11,404.22Zm-11-1.09h10.34l-.81-4h-10Z" style="fill:#263238"></path><polygon points="291.44 403.67 302.94 403.67 300.91 398.62 289.83 398.62 291.44 403.67" style="fill:#fff"></polygon><path d="M302.94,404.22h-11.5a.55.55,0,0,1-.52-.38l-1.62-5.06a.58.58,0,0,1,.08-.49.56.56,0,0,1,.45-.22h11.08a.57.57,0,0,1,.51.34l2,5.06a.58.58,0,0,1-.06.51A.54.54,0,0,1,302.94,404.22Zm-11.1-1.09h10.29l-1.59-4h-10Z" style="fill:#263238"></path><polygon points="277.53 403.67 289.02 403.67 287.49 398.62 276.41 398.62 277.53 403.67" style="fill:#fff"></polygon><path d="M289,404.22H277.53a.54.54,0,0,1-.53-.43l-1.12-5.05a.56.56,0,0,1,.1-.47.55.55,0,0,1,.43-.2h11.08a.56.56,0,0,1,.53.39l1.53,5.05a.54.54,0,0,1-.09.49A.53.53,0,0,1,289,404.22Zm-11-1.09h10.32l-1.2-4h-10Z" style="fill:#263238"></path></g><g id="freepik--Device--inject-15--inject-3"><path d="M284.76,342.8V317.61h-74.2V342.8a36.52,36.52,0,0,1-7.88,22.65l-3.25,4.1h96.46l-3.25-4.1A36.46,36.46,0,0,1,284.76,342.8Z" style="fill:#fff"></path><path d="M295.89,370.1H199.43a.57.57,0,0,1-.5-.31.56.56,0,0,1,.07-.58l3.25-4.1A36.1,36.1,0,0,0,210,342.8V317.61a.55.55,0,0,1,.55-.55h74.2a.55.55,0,0,1,.55.55V342.8a36,36,0,0,0,7.76,22.31l3.25,4.1a.55.55,0,0,1,.06.58A.54.54,0,0,1,295.89,370.1ZM200.56,369h94.19l-2.54-3.21a37.17,37.17,0,0,1-8-23V318.16h-73.1V342.8a37.23,37.23,0,0,1-8,23Z" style="fill:#263238"></path><path d="M206,360.45h83.31a36.5,36.5,0,0,1-4.55-17.65V317.61h-74.2V342.8A36.51,36.51,0,0,1,206,360.45Z" style="fill:#92E3A9;mix-blend-mode:multiply"></path><rect x="210.56" y="321.4" width="74.2" height="10.64" style="fill:#263238"></rect><path d="M284.76,332.59h-74.2A.55.55,0,0,1,210,332V321.4a.55.55,0,0,1,.55-.55h74.2a.55.55,0,0,1,.55.55V332A.55.55,0,0,1,284.76,332.59Zm-73.65-1.1h73.1V322h-73.1Z" style="fill:#263238"></path><rect x="98.55" y="101.9" width="298.21" height="223.66" rx="9.29" style="fill:#263238"></rect><path d="M387.47,326.1H107.85A9.85,9.85,0,0,1,98,316.26V111.19a9.85,9.85,0,0,1,9.85-9.84H387.47a9.85,9.85,0,0,1,9.84,9.84V316.26A9.85,9.85,0,0,1,387.47,326.1ZM107.85,102.44a8.76,8.76,0,0,0-8.75,8.75V316.26a8.76,8.76,0,0,0,8.75,8.75H387.47a8.77,8.77,0,0,0,8.75-8.75V111.19a8.77,8.77,0,0,0-8.75-8.75Z" style="fill:#263238"></path><path d="M98.55,290.79H396.76a0,0,0,0,1,0,0v25.47a9.29,9.29,0,0,1-9.29,9.29H107.85a9.29,9.29,0,0,1-9.29-9.29V290.79A0,0,0,0,1,98.55,290.79Z" style="fill:#fff"></path><path d="M387.47,326.1H107.85A9.85,9.85,0,0,1,98,316.26V290.79a.55.55,0,0,1,.55-.55H396.76a.55.55,0,0,1,.55.55v25.47A9.85,9.85,0,0,1,387.47,326.1ZM99.1,291.34v24.92a8.76,8.76,0,0,0,8.75,8.75H387.47a8.77,8.77,0,0,0,8.75-8.75V291.34Z" style="fill:#263238"></path><rect x="113.55" y="115.81" width="268.21" height="158.01" style="fill:#92E3A9"></rect><path d="M381.76,274.37H113.55a.55.55,0,0,1-.55-.55v-158a.55.55,0,0,1,.55-.55H381.76a.55.55,0,0,1,.55.55v158A.54.54,0,0,1,381.76,274.37ZM114.1,273.28H381.22V116.36H114.1Z" style="fill:#263238"></path><path d="M354.19,239.63H141.34a.5.5,0,0,1-.5-.5v-95.6a.5.5,0,0,1,.5-.5H354.19a.5.5,0,0,1,.5.5v95.6A.51.51,0,0,1,354.19,239.63Zm-212.35-1H353.69V144H141.84Z" style="fill:#fff"></path><path d="M262.64,120.58H116.09a.5.5,0,0,1-.5-.5.5.5,0,0,1,.5-.5h146.4l3.93-2.62a.49.49,0,0,1,.7.14.5.5,0,0,1-.14.69l-4.06,2.7A.47.47,0,0,1,262.64,120.58Z" style="fill:#fff"></path><path d="M318.11,120.58H265.8a.5.5,0,0,1-.5-.5.5.5,0,0,1,.5-.5H318l3.93-2.62a.48.48,0,0,1,.69.14.49.49,0,0,1-.13.69l-4.06,2.7A.47.47,0,0,1,318.11,120.58Z" style="fill:#fff"></path><path d="M374.93,120.58H322.62a.5.5,0,0,1-.5-.5.5.5,0,0,1,.5-.5h52.16l3.93-2.62a.48.48,0,0,1,.69.14.49.49,0,0,1-.14.69l-4.05,2.7A.49.49,0,0,1,374.93,120.58Z" style="fill:#fff"></path><circle cx="146.53" cy="136.99" r="1.58" style="fill:#fff"></circle><circle cx="153.97" cy="136.99" r="1.58" style="fill:#fff"></circle><circle cx="161.41" cy="136.99" r="1.58" style="fill:#fff"></circle><polygon points="367.56 232.11 357.95 226.56 357.95 237.66 367.56 232.11" style="fill:#fff"></polygon><polygon points="128.48 232.11 138.09 226.56 138.09 237.66 128.48 232.11" style="fill:#fff"></polygon><path d="M253.16,308.17a5.5,5.5,0,1,0-5.5,5.5A5.5,5.5,0,0,0,253.16,308.17Z" style="fill:#263238"></path><path d="M247.66,314.22a6.05,6.05,0,1,1,6.05-6.05A6.05,6.05,0,0,1,247.66,314.22Zm0-11a4.95,4.95,0,1,0,5,4.95A5,5,0,0,0,247.66,303.22Z" style="fill:#263238"></path><rect x="199.43" y="369.55" width="96.48" height="4.5" style="fill:#fff"></rect><path d="M295.91,374.6H199.43a.55.55,0,0,1-.55-.55v-4.5a.55.55,0,0,1,.55-.55h96.48a.55.55,0,0,1,.55.55v4.5A.55.55,0,0,1,295.91,374.6ZM200,373.5h95.38v-3.4H200Z" style="fill:#263238"></path></g><g id="freepik--character-3--inject-15--inject-3"><polygon points="310.19 140.49 310.19 150.19 317.69 150.19 317.69 140.62 310.19 140.49" style="fill:#fff"></polygon><path d="M317.69,150.69h-7.5a.51.51,0,0,1-.5-.5v-9.7a.51.51,0,0,1,.15-.35.49.49,0,0,1,.36-.15l7.5.13a.51.51,0,0,1,.49.5v9.57A.5.5,0,0,1,317.69,150.69Zm-7-1h6.5v-8.58l-6.5-.11Z" style="fill:#263238"></path><path d="M307.78,246.86s-1.48,3.39-3.8,4.81-1.78,2.23-.71,2.5,8.74,0,8.74,0,.72-.09.72-1.87-.46-5.44-.46-5.44Z" style="fill:#fff"></path><path d="M306.1,254.79a19.1,19.1,0,0,1-3-.13c-1-.25-1.24-.8-1.28-1.11-.12-.71.49-1.47,1.85-2.3,2.16-1.33,3.59-4.55,3.6-4.59a.51.51,0,0,1,.46-.3h4.49a.5.5,0,0,1,.49.44c0,.15.47,3.7.47,5.5,0,2.12-1,2.34-1.16,2.37C311.54,254.69,308.51,254.79,306.1,254.79Zm2-7.43a12.09,12.09,0,0,1-3.86,4.74c-1.19.73-1.4,1.19-1.39,1.3s.16.19.54.29a81.75,81.75,0,0,0,8.52,0c.07-.06.32-.35.32-1.37,0-1.37-.29-3.92-.41-4.94Z" style="fill:#263238"></path><path d="M323.81,246.86s1.48,3.39,3.8,4.81,1.78,2.23.71,2.5-8.74,0-8.74,0-.72-.09-.72-1.87.46-5.44.46-5.44Z" style="fill:#fff"></path><path d="M325.49,254.79c-2.41,0-5.43-.1-5.93-.12-.24,0-1.2-.25-1.2-2.37,0-1.8.45-5.35.47-5.5a.5.5,0,0,1,.49-.44h4.49a.51.51,0,0,1,.46.3s1.44,3.26,3.6,4.59c1.36.83,2,1.59,1.85,2.3,0,.31-.27.86-1.28,1.11A19.19,19.19,0,0,1,325.49,254.79Zm-5.81-1.12a81.75,81.75,0,0,0,8.52,0c.38-.1.53-.24.54-.29s-.2-.57-1.4-1.3a12.14,12.14,0,0,1-3.85-4.74h-3.72c-.12,1-.41,3.57-.41,4.94C319.36,253.32,319.61,253.61,319.68,253.67Z" style="fill:#263238"></path><polygon points="303.45 188.72 307.58 246.83 312.32 246.83 314.31 193.92 315.68 193.92 319.35 246.68 324.09 246.68 326.24 190.25 325.47 187.8 304.37 187.35 303.45 188.72" style="fill:#263238"></polygon><path d="M312.32,247.33h-4.74a.5.5,0,0,1-.5-.46L303,188.76a.53.53,0,0,1,.08-.32l.92-1.37a.53.53,0,0,1,.43-.22l21.1.45a.51.51,0,0,1,.47.36l.76,2.44a.33.33,0,0,1,0,.17l-2.14,56.43a.5.5,0,0,1-.5.48h-4.74a.5.5,0,0,1-.5-.47l-3.63-52.29h-.43l-2,52.43A.5.5,0,0,1,312.32,247.33Zm-4.28-1h3.8l2-52.43a.5.5,0,0,1,.5-.48h1.37a.5.5,0,0,1,.5.47l3.64,52.29h3.79l2.12-55.86-.63-2-20.47-.45-.67,1Z" style="fill:#263238"></path><polygon points="307.29 242.7 307.58 246.83 312.32 246.83 312.47 242.7 307.29 242.7" style="fill:#fff"></polygon><path d="M312.32,247.33h-4.74a.5.5,0,0,1-.5-.46l-.29-4.13a.52.52,0,0,1,.13-.38.51.51,0,0,1,.37-.16h5.18a.48.48,0,0,1,.36.16.45.45,0,0,1,.14.36l-.15,4.13A.5.5,0,0,1,312.32,247.33Zm-4.28-1h3.8l.11-3.13h-4.13Z" style="fill:#263238"></path><polygon points="319.08 242.7 319.35 246.68 324.09 246.68 324.24 242.7 319.08 242.7" style="fill:#fff"></polygon><path d="M324.09,247.18h-4.74a.5.5,0,0,1-.5-.47l-.27-4a.52.52,0,0,1,.13-.38.51.51,0,0,1,.37-.16h5.16a.48.48,0,0,1,.36.16.45.45,0,0,1,.14.36l-.15,4A.5.5,0,0,1,324.09,247.18Zm-4.27-1h3.79l.11-3h-4.11Z" style="fill:#263238"></path><rect x="305.15" y="149.15" width="17.19" height="38.65" style="fill:#fff"></rect><path d="M322.35,188.31h-17.2a.51.51,0,0,1-.5-.5V149.15a.51.51,0,0,1,.5-.5h17.2a.51.51,0,0,1,.5.5v38.66A.51.51,0,0,1,322.35,188.31Zm-16.7-1h16.2V149.65h-16.2Z" style="fill:#263238"></path><path d="M320.29,133.9s1.33-1.79,1.63,0-2.28,4-2.28,4Z" style="fill:#fff"></path><path d="M319.64,138.41a.42.42,0,0,1-.24-.07.48.48,0,0,1-.25-.51l.64-4a.55.55,0,0,1,.1-.22c.2-.28.93-1.16,1.69-1,.44.11.72.51.84,1.19.33,2-2.17,4.22-2.45,4.47A.52.52,0,0,1,319.64,138.41Zm1.12-4.3-.37,2.29a3.55,3.55,0,0,0,1-2.42.79.79,0,0,0-.13-.4A3.4,3.4,0,0,0,320.76,134.11Z" style="fill:#263238"></path><path d="M307.48,133.9s-1.34-1.79-1.64,0,2.29,4,2.29,4Z" style="fill:#fff"></path><path d="M308.13,138.41a.5.5,0,0,1-.33-.12c-.29-.25-2.78-2.47-2.45-4.47.11-.68.4-1.08.84-1.19.75-.19,1.48.69,1.69,1a.43.43,0,0,1,.09.22l.65,4a.51.51,0,0,1-.25.51A.44.44,0,0,1,308.13,138.41Zm-1.71-4.8s0,.14-.08.37a3.51,3.51,0,0,0,1,2.42l-.37-2.29A1.82,1.82,0,0,0,306.42,133.61Z" style="fill:#263238"></path><path d="M314.33,125.11s-5-.39-6.2,3-.39,8.79,0,9.83,3.62,6.07,4.52,6.46,3.1.26,3.49-.26,3.62-5.3,3.88-7a62.94,62.94,0,0,0-.14-7.41,4.61,4.61,0,0,0-2.84-4A8.56,8.56,0,0,0,314.33,125.11Z" style="fill:#fff"></path><path d="M314.17,145.1a4.84,4.84,0,0,1-1.72-.27c-1.14-.49-4.44-5.8-4.79-6.75-.46-1.21-1.19-6.75,0-10.16,1.27-3.67,6.45-3.33,6.72-3.31a9.34,9.34,0,0,1,2.86.63,5.14,5.14,0,0,1,3.15,4.45,59,59,0,0,1,.13,7.52c-.3,1.95-3.93,7.15-4,7.2A3.26,3.26,0,0,1,314.17,145.1Zm-.29-19.5c-1.17,0-4.44.22-5.28,2.65-1.14,3.29-.33,8.61,0,9.48.4,1.06,3.53,5.84,4.26,6.18a4.53,4.53,0,0,0,2.9-.11c.46-.62,3.54-5.24,3.78-6.74a58,58,0,0,0-.15-7.31,4.14,4.14,0,0,0-2.53-3.58,8.2,8.2,0,0,0-2.55-.56Z" style="fill:#263238"></path><path d="M319.88,129.72a4.61,4.61,0,0,0-2.84-4,8.56,8.56,0,0,0-2.71-.6s-5-.39-6.2,3a16.28,16.28,0,0,0-.58,5.91c.26.29,1.1,1.19,1,.06-.15-1.34-.3-5.35.74-6.24s1.19-1.64,2.68-.45,1.33,2.23,2.82,1.49,1.78-2.38,3.12-1.79.89,3.42.89,4.76,0,3.86.89,2.67a3.28,3.28,0,0,0,.4-.8C320,132.33,319.94,130.85,319.88,129.72Z" style="fill:#263238"></path><path d="M319.27,135.3a.91.91,0,0,1-.23,0c-.66-.22-.77-1.25-.77-3.45,0-.25,0-.55,0-.88.06-1.15.16-3.07-.62-3.42-.44-.2-.62-.08-1.22.57a5,5,0,0,1-1.48,1.2,1.61,1.61,0,0,1-2.38-.55,6.43,6.43,0,0,0-1-1c-.86-.69-.93-.63-1.51,0-.15.15-.32.31-.52.48-.69.59-.8,3.78-.57,5.81,0,.21.09.84-.41,1.06s-.85-.05-1.44-.74a.53.53,0,0,1-.12-.3,17.1,17.1,0,0,1,.6-6.09c1.28-3.68,6.5-3.33,6.72-3.31a9.34,9.34,0,0,1,2.86.63,5.14,5.14,0,0,1,3.15,4.45h0c.06,1.14.14,2.62.18,4a.69.69,0,0,1,0,.2,3.84,3.84,0,0,1-.47.92A1,1,0,0,1,319.27,135.3Zm.07-5.94c0,.55,0,1.12,0,1.63,0,.31,0,.59,0,.83a17.5,17.5,0,0,0,.1,2.19,4.46,4.46,0,0,0,.19-.41c-.05-1.33-.12-2.75-.18-3.85h0C319.37,129.62,319.36,129.49,319.34,129.36Zm-8.62-3.11a2.59,2.59,0,0,1,1.53.72,7.79,7.79,0,0,1,1.12,1.13c.49.59.52.62,1.17.3a4.17,4.17,0,0,0,1.19-1,2.3,2.3,0,0,1,1.62-1h0a3.78,3.78,0,0,0-.53-.27,8.2,8.2,0,0,0-2.55-.56,8.59,8.59,0,0,0-3.84.66Z" style="fill:#263238"></path><path d="M328.55,151.22s4.53,15.13,4.53,18.23-2.85,5.82-4.14,5.69-2.84-6.34-3.36-7.76a12.46,12.46,0,0,1-.65-2.71Z" style="fill:#fff"></path><path d="M329,175.64h-.14c-1.15-.12-2-2.35-3.35-6.71-.18-.6-.33-1.09-.43-1.38a12.62,12.62,0,0,1-.67-2.83.37.37,0,0,1,0-.18l3.62-13.45a.52.52,0,0,1,.48-.37h0a.5.5,0,0,1,.48.36c.19.62,4.55,15.23,4.55,18.37a7.26,7.26,0,0,1-2.42,5.13A3.5,3.5,0,0,1,329,175.64Zm-3.59-10.93a12.11,12.11,0,0,0,.61,2.5c.11.3.26.81.45,1.43.43,1.43,1.75,5.78,2.5,6,.3,0,.83-.21,1.49-.8a6.25,6.25,0,0,0,2.09-4.39c0-2.38-2.83-12.35-4-16.38Z" style="fill:#263238"></path><path d="M310.07,146.18s2.19,14.35,2.19,18.36S311.1,194,311.1,194l-11-.77s4.14-17.2,4.14-20.43-5.17-21.59-5.17-21.59A28.71,28.71,0,0,1,310.07,146.18Z" style="fill:#fff"></path><path d="M311.1,194.51h0l-11-.77a.49.49,0,0,1-.37-.21.46.46,0,0,1-.08-.41c0-.17,4.12-17.17,4.12-20.31s-5.1-21.27-5.16-21.45a.51.51,0,0,1,.18-.53,28.94,28.94,0,0,1,11.2-5.14.46.46,0,0,1,.38.08.52.52,0,0,1,.21.33c.09.59,2.2,14.44,2.2,18.44s-1.15,29.24-1.16,29.5a.53.53,0,0,1-.17.35A.5.5,0,0,1,311.1,194.51Zm-10.37-1.73,9.89.7c.17-3.62,1.14-25.3,1.14-28.94s-1.72-15.15-2.11-17.76a28.61,28.61,0,0,0-10,4.64c.72,2.57,5.1,18.33,5.1,21.39S301.46,189.71,300.73,192.78Z" style="fill:#263238"></path><path d="M317.64,146.07s-2.27,14.46-2.27,18.47S316.53,194,316.53,194l11-.77s-4.14-17.2-4.14-20.43,5.17-21.59,5.17-21.59A27.4,27.4,0,0,0,317.64,146.07Z" style="fill:#fff"></path><path d="M316.53,194.51a.5.5,0,0,1-.33-.12A.53.53,0,0,1,316,194c0-.26-1.16-25.53-1.16-29.5s2.18-18,2.28-18.55a.5.5,0,0,1,.2-.33.51.51,0,0,1,.38-.08,27.53,27.53,0,0,1,11.14,5.26.49.49,0,0,1,.16.52c0,.18-5.15,18.33-5.15,21.45S328,193,328,193.12a.46.46,0,0,1-.08.41.51.51,0,0,1-.37.21l-11,.77Zm1.52-47.84c-.4,2.61-2.18,14.37-2.18,17.87s1,25.32,1.14,28.94l9.89-.7c-.74-3.07-4-17-4-20s4.39-18.85,5.1-21.4A27.45,27.45,0,0,0,318.05,146.67Z" style="fill:#263238"></path><path d="M299.08,151.22s-3,14.35-3.24,19.65,3.62,4.14,4.66,2.33,2.45-7.76,2.45-7.76Z" style="fill:#fff"></path><path d="M298,175.22a2.59,2.59,0,0,1-.68-.09c-.79-.23-2.09-1.1-1.93-4.28.25-5.28,3.11-19.14,3.24-19.73a.5.5,0,0,1,.47-.4.51.51,0,0,1,.5.37l3.88,14.22a.53.53,0,0,1,0,.25c-.06.25-1.45,6-2.51,7.89A3.67,3.67,0,0,1,298,175.22Zm1.19-21.83c-.83,4.17-2.61,13.51-2.81,17.51-.09,1.85.35,3,1.22,3.27a2.48,2.48,0,0,0,2.5-1.22c.91-1.58,2.17-6.64,2.38-7.5Z" style="fill:#263238"></path><path d="M318.73,164.67a7.88,7.88,0,0,1,3.62.64,6.63,6.63,0,0,1,2.07,2.2H319Z" style="fill:#fff"></path><path d="M324.42,168H319a.5.5,0,0,1-.5-.45l-.26-2.85a.5.5,0,0,1,.12-.37.51.51,0,0,1,.35-.17,8.1,8.1,0,0,1,3.9.72,6.87,6.87,0,0,1,2.25,2.38.47.47,0,0,1,0,.5A.49.49,0,0,1,324.42,168Zm-5-1h4a5.52,5.52,0,0,0-1.38-1.27,6.35,6.35,0,0,0-2.82-.58Z" style="fill:#263238"></path><path d="M327.26,166.35l-19.26-1-.26,2.85L327.65,175s2.45.91,2.84-1.29" style="fill:#fff"></path><path d="M328.73,175.69a4.27,4.27,0,0,1-1.26-.21l-19.89-6.85a.5.5,0,0,1-.34-.52l.26-2.84a.51.51,0,0,1,.52-.46l19.27,1a.5.5,0,0,1,.47.53.52.52,0,0,1-.53.47l-18.78-1-.18,2,19.54,6.73a2.33,2.33,0,0,0,1.65,0,1.18,1.18,0,0,0,.54-.9.49.49,0,0,1,.58-.4.48.48,0,0,1,.4.57,2.15,2.15,0,0,1-1,1.6A2.5,2.5,0,0,1,328.73,175.69Z" style="fill:#263238"></path><path d="M299.46,165.7l19.27-1,.26,2.84-19.91,6.85s-2.46.91-2.85-1.29" style="fill:#fff"></path><path d="M298,175.05a2.43,2.43,0,0,1-1.23-.3,2.16,2.16,0,0,1-1-1.59.5.5,0,0,1,.41-.58.49.49,0,0,1,.57.4,1.21,1.21,0,0,0,.54.9,2.19,2.19,0,0,0,1.64,0l19.55-6.72-.18-2-18.78,1a.5.5,0,0,1-.05-1l19.26-1a.5.5,0,0,1,.53.45l.25,2.85a.48.48,0,0,1-.33.51l-19.91,6.86A4,4,0,0,1,298,175.05Z" style="fill:#263238"></path><polygon points="296.75 260.87 297.64 263.62 300.54 263.62 298.2 265.32 299.09 268.07 296.75 266.37 294.41 268.07 295.3 265.32 292.96 263.62 295.86 263.62 296.75 260.87" style="fill:#263238"></polygon><path d="M299.09,268.57a.52.52,0,0,1-.29-.09L296.75,267l-2.05,1.49a.5.5,0,0,1-.77-.56l.78-2.41-2-1.49a.5.5,0,0,1,.29-.9h2.53l.78-2.41a.53.53,0,0,1,1,0l.78,2.41h2.53a.5.5,0,0,1,.29.9l-2,1.49.78,2.41a.49.49,0,0,1-.48.65Zm-2.34-2.7a.45.45,0,0,1,.29.1l1.1.79-.42-1.29a.5.5,0,0,1,.18-.55l1.1-.8h-1.36a.5.5,0,0,1-.47-.35l-.42-1.29-.42,1.29a.5.5,0,0,1-.47.35H294.5l1.1.8a.5.5,0,0,1,.18.55l-.42,1.29,1.1-.79A.45.45,0,0,1,296.75,265.87Z" style="fill:#263238"></path><polygon points="307.23 260.87 308.12 263.62 311.02 263.62 308.68 265.32 309.57 268.07 307.23 266.37 304.89 268.07 305.78 265.32 303.44 263.62 306.33 263.62 307.23 260.87" style="fill:#263238"></polygon><path d="M304.89,268.57a.49.49,0,0,1-.48-.65l.78-2.41-2-1.49a.49.49,0,0,1,.29-.9H306l.78-2.41a.52.52,0,0,1,.95,0l.79,2.41H311a.5.5,0,0,1,.47.34.49.49,0,0,1-.18.56l-2.05,1.49.79,2.41a.5.5,0,0,1-.77.56l-2-1.49-2.05,1.49A.52.52,0,0,1,304.89,268.57Zm2.34-2.7a.46.46,0,0,1,.29.1l1.1.79-.42-1.29a.49.49,0,0,1,.18-.55l1.1-.8h-1.36a.49.49,0,0,1-.47-.35l-.42-1.29-.42,1.29a.5.5,0,0,1-.48.35H305l1.1.8a.5.5,0,0,1,.18.55l-.42,1.29,1.09-.79A.49.49,0,0,1,307.23,265.87Z" style="fill:#263238"></path><polygon points="317.71 260.87 318.6 263.62 321.5 263.62 319.15 265.32 320.05 268.07 317.71 266.37 315.37 268.07 316.26 265.32 313.92 263.62 316.81 263.62 317.71 260.87" style="fill:#fff"></polygon><path d="M320.05,268.57a.5.5,0,0,1-.29-.09L317.71,267l-2,1.49a.53.53,0,0,1-.59,0,.51.51,0,0,1-.18-.56l.78-2.41-2-1.49a.49.49,0,0,1,.29-.9h2.53l.78-2.41a.52.52,0,0,1,.95,0l.79,2.41h2.53a.5.5,0,0,1,.47.34.49.49,0,0,1-.18.56l-2.05,1.49.79,2.41a.51.51,0,0,1-.19.56A.5.5,0,0,1,320.05,268.57Zm-2.34-2.7a.46.46,0,0,1,.29.1l1.1.79-.42-1.29a.49.49,0,0,1,.18-.55l1.1-.8H318.6a.49.49,0,0,1-.47-.35l-.42-1.29-.42,1.29a.5.5,0,0,1-.48.35h-1.35l1.09.8a.49.49,0,0,1,.19.55l-.42,1.29,1.09-.79A.47.47,0,0,1,317.71,265.87Z" style="fill:#263238"></path><polygon points="328.19 260.87 329.08 263.62 331.98 263.62 329.63 265.32 330.53 268.07 328.19 266.37 325.85 268.07 326.74 265.32 324.4 263.62 327.29 263.62 328.19 260.87" style="fill:#fff"></polygon><path d="M330.53,268.57a.53.53,0,0,1-.3-.09l-2-1.49-2.05,1.49a.53.53,0,0,1-.59,0,.51.51,0,0,1-.18-.56l.78-2.41-2-1.49a.52.52,0,0,1-.18-.56.51.51,0,0,1,.48-.34h2.53l.78-2.41a.52.52,0,0,1,1,0l.78,2.41H332a.5.5,0,0,1,.29.9l-2,1.49.78,2.41a.49.49,0,0,1-.18.56A.52.52,0,0,1,330.53,268.57Zm-2.34-2.7a.46.46,0,0,1,.29.1l1.1.79-.42-1.29a.49.49,0,0,1,.18-.55l1.1-.8h-1.36a.48.48,0,0,1-.47-.35l-.42-1.29-.42,1.29a.5.5,0,0,1-.48.35h-1.35l1.09.8a.49.49,0,0,1,.19.55l-.42,1.29,1.09-.79A.47.47,0,0,1,328.19,265.87Z" style="fill:#263238"></path><polygon points="338.67 260.87 339.56 263.62 342.45 263.62 340.11 265.32 341.01 268.07 338.67 266.37 336.32 268.07 337.22 265.32 334.88 263.62 337.77 263.62 338.67 260.87" style="fill:#fff"></polygon><path d="M341,268.57a.53.53,0,0,1-.3-.09l-2-1.49-2.05,1.49a.53.53,0,0,1-.59,0,.51.51,0,0,1-.18-.56l.78-2.41L334.58,264a.5.5,0,0,1,.3-.9h2.53l.78-2.41a.52.52,0,0,1,.95,0l.78,2.41h2.54a.5.5,0,0,1,.29.9l-2.05,1.49.78,2.41a.49.49,0,0,1-.18.56A.52.52,0,0,1,341,268.57Zm-2.34-2.7a.46.46,0,0,1,.29.1l1.1.79-.42-1.29a.47.47,0,0,1,.18-.55l1.1-.8h-1.36a.5.5,0,0,1-.48-.35l-.41-1.29-.42,1.29a.5.5,0,0,1-.48.35h-1.35l1.09.8a.47.47,0,0,1,.18.55l-.41,1.29,1.09-.79A.47.47,0,0,1,338.67,265.87Z" style="fill:#263238"></path></g><g id="freepik--character-2--inject-15--inject-3"><path d="M235.54,153.29l-5.69,22.07A3.33,3.33,0,0,0,231,178.6c1.62,1.27,8.45,3.47,8.45,3.47l-.93-24.87Z" style="fill:#fff"></path><path d="M239.45,182.57l-.15,0c-.29-.09-6.93-2.24-8.6-3.56a3.83,3.83,0,0,1-1.34-3.74l5.7-22.09a.51.51,0,0,1,.39-.36.47.47,0,0,1,.49.19l3,3.91a.48.48,0,0,1,.1.28l.93,24.87a.49.49,0,0,1-.2.42A.47.47,0,0,1,239.45,182.57Zm-3.68-28.16-5.44,21.08a2.83,2.83,0,0,0,1,2.72c1.14.89,5.39,2.42,7.61,3.16l-.89-24Z" style="fill:#263238"></path><line x1="237.6" y1="175.59" x2="233.9" y2="173.97" style="fill:#fff"></line><path d="M237.6,176.09a.45.45,0,0,1-.2,0l-3.7-1.62a.49.49,0,0,1-.26-.66.5.5,0,0,1,.66-.26l3.7,1.62a.5.5,0,0,1-.2,1Z" style="fill:#263238"></path><path d="M264.23,153.29l5.7,22.07a3.35,3.35,0,0,1-1.16,3.24c-1.62,1.27-8.44,3.47-8.44,3.47l.92-24.87Z" style="fill:#fff"></path><path d="M260.33,182.57a.5.5,0,0,1-.31-.1.48.48,0,0,1-.19-.42l.92-24.87a.56.56,0,0,1,.1-.28l3-3.92a.51.51,0,0,1,.89.18l5.69,22.08a3.8,3.8,0,0,1-1.33,3.75c-1.67,1.32-8.32,3.47-8.6,3.56Zm1.42-25.19-.9,24c2.22-.74,6.47-2.27,7.61-3.16a2.82,2.82,0,0,0,1-2.74L264,154.41Z" style="fill:#263238"></path><line x1="262.18" y1="175.59" x2="265.88" y2="173.97" style="fill:#fff"></line><path d="M262.18,176.09a.5.5,0,0,1-.2-1l3.7-1.62a.5.5,0,1,1,.4.92l-3.7,1.62A.48.48,0,0,1,262.18,176.09Z" style="fill:#263238"></path><polygon points="237.27 182.02 234.97 246.53 239.82 246.53 249.3 196.25 258.91 246.42 263.76 246.42 262.09 181.7 237.27 182.02" style="fill:#263238"></polygon><path d="M239.82,247H235a.48.48,0,0,1-.36-.15.47.47,0,0,1-.14-.37l2.3-64.51a.5.5,0,0,1,.49-.48l24.82-.32h0a.51.51,0,0,1,.5.49l1.67,64.72a.54.54,0,0,1-.14.36.51.51,0,0,1-.36.15h-4.85a.49.49,0,0,1-.49-.4l-9.12-47.59-9,47.69A.49.49,0,0,1,239.82,247Zm-4.33-1h3.91l9.41-49.87a.5.5,0,0,1,.49-.41h0a.49.49,0,0,1,.49.41l9.53,49.76h3.93l-1.65-63.71-23.85.3Z" style="fill:#263238"></path><path d="M235,246.53s-1.6,3.66-4.11,5.2-1.93,2.42-.77,2.71,9.45,0,9.45,0,.78-.1.78-2-.5-5.88-.5-5.88Z" style="fill:#fff"></path><path d="M233.14,255.06a20.21,20.21,0,0,1-3.17-.14c-1.07-.26-1.31-.84-1.36-1.16-.12-.76.53-1.56,2-2.45,2.34-1.44,3.89-4.94,3.91-5a.51.51,0,0,1,.46-.3h4.85a.5.5,0,0,1,.49.44c0,.16.51,4,.51,5.94,0,2.26-1,2.5-1.21,2.52C239,255,235.75,255.06,233.14,255.06Zm2.15-8a13.17,13.17,0,0,1-4.17,5.13c-1.26.78-1.55,1.29-1.52,1.45s.18.23.61.34a88.61,88.61,0,0,0,9.23,0c.08-.06.38-.37.38-1.53,0-1.5-.32-4.3-.44-5.38Z" style="fill:#263238"></path><path d="M263.88,246.53s1.6,3.66,4.11,5.2,1.93,2.42.77,2.71-9.46,0-9.46,0-.77-.1-.77-2,.5-5.88.5-5.88Z" style="fill:#fff"></path><path d="M265.7,255.07c-2.61,0-5.87-.11-6.42-.13-.24,0-1.25-.27-1.25-2.53,0-1.94.48-5.78.5-5.94a.5.5,0,0,1,.5-.44h4.85a.49.49,0,0,1,.45.3s1.57,3.54,3.92,5c1.45.89,2.1,1.69,2,2.45-.05.32-.29.9-1.35,1.16A20,20,0,0,1,265.7,255.07Zm-6.3-1.13a88.81,88.81,0,0,0,9.24,0c.42-.11.59-.26.61-.34s-.27-.67-1.53-1.45c-2.21-1.36-3.71-4.2-4.16-5.13h-4.09c-.13,1.08-.44,3.88-.44,5.38C259,253.57,259.32,253.88,259.4,253.94Z" style="fill:#263238"></path><path d="M245.5,148.12l-10,5.17L237.27,182s-.38,1.34,1.91,1.34,19,.38,20.5-.19,3.25-1.54,3.06-3.45,1.49-26.43,1.49-26.43l-7.81-4.6Z" style="fill:#fff"></path><path d="M251.85,184c-2.77,0-6.15,0-10-.09l-2.69,0a2.54,2.54,0,0,1-2.15-.78,1.38,1.38,0,0,1-.26-1.1l-1.72-28.66a.5.5,0,0,1,.26-.48l10-5.17a.47.47,0,0,1,.26,0l10.92.57a.62.62,0,0,1,.23.07l7.81,4.6a.49.49,0,0,1,.24.46c-.58,8.47-1.64,24.87-1.49,26.35.26,2.6-2.49,3.63-3.39,4C259.17,183.89,256.3,184,251.85,184Zm-14.1-1.83a.44.44,0,0,0,.08.34c.11.14.43.37,1.35.37l2.7,0c4.51.07,16.47.24,17.62-.19,2-.75,2.87-1.68,2.75-2.93-.19-1.84,1.26-23.24,1.46-26.21l-7.44-4.38-10.66-.56-9.55,5L237.77,182a1.11,1.11,0,0,1,0,.17Z" style="fill:#263238"></path><polygon points="246.46 141.8 246.46 146.39 250.48 150.03 254.89 146.78 254.89 141.99 246.46 141.8" style="fill:#fff"></polygon><path d="M250.48,150.53a.46.46,0,0,1-.33-.13l-4-3.64a.48.48,0,0,1-.17-.37V141.8a.51.51,0,0,1,.15-.36.54.54,0,0,1,.36-.14l8.43.19a.5.5,0,0,1,.49.5v4.79a.52.52,0,0,1-.2.4l-4.41,3.25A.47.47,0,0,1,250.48,150.53ZM247,146.17l3.56,3.22,3.87-2.87v-4l-7.43-.17Z" style="fill:#263238"></path><path d="M245,136.05s-1.91-2.11-2.29-.19,2.1,4.4,2.1,4.4Z" style="fill:#fff"></path><path d="M244.84,140.76a.5.5,0,0,1-.35-.14c-.11-.11-2.67-2.71-2.24-4.86a1.34,1.34,0,0,1,.89-1.17c1-.26,2.05.89,2.26,1.12a.49.49,0,0,1,.13.36l-.19,4.22a.5.5,0,0,1-.32.44A.57.57,0,0,1,244.84,140.76Zm-1.39-5.21h0s-.13.13-.18.4c-.19.93.51,2.14,1.17,3l.12-2.74A2.37,2.37,0,0,0,243.45,135.55Z" style="fill:#263238"></path><path d="M257.25,136.05s1.92-2.11,2.3-.19-2.11,4.4-2.11,4.4Z" style="fill:#fff"></path><path d="M257.44,140.76a.57.57,0,0,1-.18,0,.51.51,0,0,1-.32-.44l-.19-4.22a.53.53,0,0,1,.13-.36c.21-.23,1.31-1.38,2.27-1.12a1.34,1.34,0,0,1,.89,1.17c.43,2.15-2.13,4.75-2.24,4.86A.54.54,0,0,1,257.44,140.76Zm.32-4.52.13,2.74c.66-.88,1.36-2.09,1.17-3-.05-.27-.14-.39-.18-.4S258.18,135.83,257.76,136.24Z" style="fill:#263238"></path><path d="M244.84,130.69s-.38,9.77.58,11.87,6.51,2.68,8.81,1.92,3.25-4,3.25-4l-.38-9.58a6.75,6.75,0,0,0-12.26-.19Z" style="fill:#fff"></path><path d="M251.65,145.31c-2.66,0-5.88-.77-6.69-2.54-1-2.15-.66-11.09-.62-12.1a.8.8,0,0,1,0-.15,7.25,7.25,0,0,1,13.21.2.68.68,0,0,1,0,.14l.38,9.58a.31.31,0,0,1,0,.16c0,.14-1.06,3.51-3.57,4.35A9.14,9.14,0,0,1,251.65,145.31Zm-6.31-14.52c-.11,2.75-.21,9.94.53,11.57s6,2.37,8.2,1.64c1.84-.61,2.76-3.15,2.91-3.61L256.6,131a6.26,6.26,0,0,0-11.26-.19Z" style="fill:#263238"></path><path d="M257.34,136.82l-.24-5.94a6.75,6.75,0,0,0-12.26-.19s-.08,2.1-.07,4.56l.26.8.67.67.48-2.78,1-1.15.38-2.87h7.86v3.26l.76.76v2.88Z" style="fill:#263238"></path><path d="M257.34,137.32h-1.2a.51.51,0,0,1-.5-.5v-2.67l-.62-.62a.5.5,0,0,1-.14-.35v-2.76H248l-.32,2.44a.57.57,0,0,1-.11.25l-.88,1-.45,2.65a.52.52,0,0,1-.34.39.51.51,0,0,1-.51-.13l-.67-.67a.47.47,0,0,1-.12-.19l-.27-.8a.78.78,0,0,1,0-.16c0-2.44.07-4.56.07-4.58a.8.8,0,0,1,0-.15,7.25,7.25,0,0,1,13.21.2.68.68,0,0,1,0,.14l.24,5.94a.52.52,0,0,1-.14.36A.52.52,0,0,1,257.34,137.32Zm-.7-1h.18L256.6,131a6.26,6.26,0,0,0-11.26-.19c0,.4-.08,2.26-.07,4.38l.13.39.29-1.7a.53.53,0,0,1,.11-.24l.86-1,.37-2.73a.5.5,0,0,1,.49-.44h7.86a.51.51,0,0,1,.5.5V133l.62.62a.5.5,0,0,1,.14.35Z" style="fill:#263238"></path><polygon points="248.38 151.95 249.91 155.4 246.84 178.76 251.25 183.93 254.51 178.38 251.06 155.2 253.36 151.95 250.87 148.31 248.38 151.95" style="fill:#263238"></polygon><path d="M251.25,184.43a.49.49,0,0,1-.38-.17l-4.41-5.17a.5.5,0,0,1-.11-.39l3.05-23.23-1.48-3.32a.51.51,0,0,1,0-.48l2.49-3.64a.52.52,0,0,1,.83,0l2.49,3.64a.5.5,0,0,1,0,.57l-2.19,3.09,3.42,23a.47.47,0,0,1-.06.33l-3.26,5.56a.47.47,0,0,1-.39.24Zm-3.88-5.82,3.8,4.46,2.82-4.79-3.43-23a.5.5,0,0,1,.09-.36l2.1-3-1.88-2.75L249,152l1.42,3.19a.63.63,0,0,1,0,.27Z" style="fill:#263238"></path><polygon points="250.48 150.03 247.8 154.05 244.74 148.31 246.46 146.39 250.48 150.03" style="fill:#fff"></polygon><path d="M247.8,154.55h0a.51.51,0,0,1-.42-.26l-3.06-5.75a.5.5,0,0,1,.07-.57l1.72-1.91a.51.51,0,0,1,.35-.17.53.53,0,0,1,.36.13l4,3.64a.5.5,0,0,1,.08.65l-2.68,4A.5.5,0,0,1,247.8,154.55Zm-2.46-6.17,2.51,4.7,2-3-3.33-3Z" style="fill:#263238"></path><polygon points="250.48 150.03 252.97 154.05 256.42 148.69 254.89 146.78 250.48 150.03" style="fill:#fff"></polygon><path d="M253,154.55h0a.5.5,0,0,1-.42-.23l-2.49-4a.5.5,0,0,1,.13-.67l4.4-3.26a.5.5,0,0,1,.69.09l1.53,1.92a.48.48,0,0,1,0,.58l-3.45,5.36A.48.48,0,0,1,253,154.55Zm-1.82-4.39,1.83,3,2.83-4.4-1-1.26Z" style="fill:#263238"></path><polygon points="229.32 260.87 230.21 263.62 233.11 263.62 230.76 265.32 231.66 268.07 229.32 266.37 226.97 268.07 227.87 265.32 225.53 263.62 228.42 263.62 229.32 260.87" style="fill:#263238"></polygon><path d="M231.66,268.57a.55.55,0,0,1-.3-.09l-2-1.49-2,1.49a.53.53,0,0,1-.59,0,.51.51,0,0,1-.18-.56l.78-2.41L225.23,264a.52.52,0,0,1-.18-.56.51.51,0,0,1,.48-.34h2.53l.78-2.41a.52.52,0,0,1,.95,0l.78,2.41h2.54a.51.51,0,0,1,.47.34.49.49,0,0,1-.18.56l-2.05,1.49.78,2.41a.49.49,0,0,1-.47.65Zm-2.34-2.7a.46.46,0,0,1,.29.1l1.1.79-.42-1.29a.47.47,0,0,1,.18-.55l1.1-.8h-1.36a.48.48,0,0,1-.47-.35l-.42-1.29-.42,1.29a.5.5,0,0,1-.48.35h-1.35l1.09.8a.49.49,0,0,1,.19.55l-.42,1.29L229,266A.47.47,0,0,1,229.32,265.87Z" style="fill:#263238"></path><polygon points="239.8 260.87 240.69 263.62 243.59 263.62 241.24 265.32 242.14 268.07 239.8 266.37 237.45 268.07 238.35 265.32 236.01 263.62 238.9 263.62 239.8 260.87" style="fill:#263238"></polygon><path d="M242.14,268.57a.53.53,0,0,1-.3-.09l-2-1.49-2.05,1.49a.53.53,0,0,1-.59,0,.49.49,0,0,1-.18-.56l.78-2.41-2-1.49a.5.5,0,0,1,.3-.9h2.53l.78-2.41a.52.52,0,0,1,1,0l.78,2.41h2.53a.5.5,0,0,1,.3.9l-2,1.49.78,2.41a.49.49,0,0,1-.18.56A.52.52,0,0,1,242.14,268.57Zm-2.34-2.7a.46.46,0,0,1,.29.1l1.1.79-.42-1.29a.47.47,0,0,1,.18-.55l1.1-.8h-1.36a.5.5,0,0,1-.48-.35l-.41-1.29-.42,1.29a.5.5,0,0,1-.48.35h-1.36l1.1.8a.47.47,0,0,1,.18.55l-.41,1.29,1.09-.79A.47.47,0,0,1,239.8,265.87Z" style="fill:#263238"></path><polygon points="250.28 260.87 251.17 263.62 254.06 263.62 251.72 265.32 252.62 268.07 250.28 266.37 247.93 268.07 248.83 265.32 246.49 263.62 249.38 263.62 250.28 260.87" style="fill:#263238"></polygon><path d="M247.93,268.57a.52.52,0,0,1-.29-.09.49.49,0,0,1-.18-.56l.78-2.41L246.19,264a.5.5,0,0,1,.3-.9H249l.78-2.41a.49.49,0,0,1,.47-.34h0a.5.5,0,0,1,.48.34l.78,2.41h2.53a.5.5,0,0,1,.3.9l-2.05,1.49.78,2.41a.51.51,0,0,1-.18.56.53.53,0,0,1-.59,0l-2-1.49-2,1.49A.53.53,0,0,1,247.93,268.57Zm.09-4.45,1.1.8a.47.47,0,0,1,.18.55l-.42,1.29L250,266a.5.5,0,0,1,.59,0l1.1.79-.42-1.29a.47.47,0,0,1,.18-.55l1.1-.8h-1.36a.5.5,0,0,1-.48-.35l-.42-1.29-.41,1.29a.5.5,0,0,1-.48.35Z" style="fill:#263238"></path><polygon points="260.75 260.87 261.65 263.62 264.54 263.62 262.2 265.32 263.1 268.07 260.75 266.37 258.41 268.07 259.31 265.32 256.96 263.62 259.86 263.62 260.75 260.87" style="fill:#263238"></polygon><path d="M263.1,268.57a.53.53,0,0,1-.3-.09L260.75,267l-2,1.49a.53.53,0,0,1-.59,0,.49.49,0,0,1-.18-.56l.78-2.41L256.67,264a.5.5,0,0,1,.29-.9h2.54l.78-2.41a.52.52,0,0,1,1,0l.78,2.41h2.53a.51.51,0,0,1,.48.34.52.52,0,0,1-.18.56l-2,1.49.78,2.41a.51.51,0,0,1-.18.56A.52.52,0,0,1,263.1,268.57Zm-2.35-2.7a.47.47,0,0,1,.3.1l1.09.79-.41-1.29a.47.47,0,0,1,.18-.55l1.09-.8h-1.35a.5.5,0,0,1-.48-.35l-.42-1.29-.42,1.29a.48.48,0,0,1-.47.35H258.5l1.1.8a.47.47,0,0,1,.18.55l-.42,1.29,1.1-.79A.46.46,0,0,1,260.75,265.87Z" style="fill:#263238"></path><polygon points="271.23 260.87 272.13 263.62 275.02 263.62 272.68 265.32 273.57 268.07 271.23 266.37 268.89 268.07 269.79 265.32 267.44 263.62 270.34 263.62 271.23 260.87" style="fill:#fff"></polygon><path d="M273.57,268.57a.52.52,0,0,1-.29-.09l-2-1.49-2.05,1.49a.51.51,0,0,1-.58,0,.49.49,0,0,1-.18-.56l.78-2.41L267.15,264a.5.5,0,0,1,.29-.9H270l.78-2.41a.52.52,0,0,1,.95,0l.78,2.41H275a.51.51,0,0,1,.48.34.52.52,0,0,1-.18.56l-2.05,1.49.78,2.41a.51.51,0,0,1-.18.56A.53.53,0,0,1,273.57,268.57Zm-2.34-2.7a.47.47,0,0,1,.3.1l1.09.79-.42-1.29a.49.49,0,0,1,.19-.55l1.09-.8h-1.35a.5.5,0,0,1-.48-.35l-.42-1.29-.42,1.29a.48.48,0,0,1-.47.35H269l1.1.8a.49.49,0,0,1,.18.55l-.42,1.29,1.1-.79A.46.46,0,0,1,271.23,265.87Z" style="fill:#263238"></path></g><g id="freepik--character-1--inject-15--inject-3"><path d="M183.62,129.78s-4.77-.12-6.16,3.4-4.14,13.19-3.77,14.19,10.56,3.15,14.45,1.89a15.3,15.3,0,0,0,5.78-3.14s-2.51-8.3-3.51-11.56S187,129.28,183.62,129.78Z" style="fill:#263238"></path><path d="M184.88,150.13c-4.67,0-11.21-1.39-11.65-2.58-.5-1.34,2.68-11.78,3.77-14.56,1.43-3.65,6.08-3.71,6.59-3.71,3.43-.49,6.15,1.43,7.29,5.13,1,3.27,3.52,11.56,3.52,11.56a.49.49,0,0,1-.12.5,15.61,15.61,0,0,1-6,3.26A11.65,11.65,0,0,1,184.88,150.13Zm-1.31-19.85c-.42,0-4.46.08-5.64,3.08-1.56,4-4,12.9-3.76,13.85.72.77,10.15,2.76,13.82,1.57a15.81,15.81,0,0,0,5.36-2.82c-.46-1.52-2.53-8.36-3.42-11.25-1-3.26-3.28-4.87-6.24-4.43h-.12Z" style="fill:#263238"></path><path d="M179.6,145.74s.75,4,.25,5.28-6.28,2.89-6.28,2.89l18.93.28-6.16-2.86-.23-4.47Z" style="fill:#fff"></path><path d="M192.5,154.69h0l-18.94-.28a.51.51,0,0,1-.49-.44.49.49,0,0,1,.36-.54c2.68-.76,5.71-2,6-2.6.32-.81,0-3.5-.28-5a.51.51,0,0,1,.13-.44.49.49,0,0,1,.44-.14l6.51,1.11a.5.5,0,0,1,.41.47l.23,4.17,5.88,2.73a.5.5,0,0,1,.28.57A.49.49,0,0,1,192.5,154.69Zm-15.91-1.24,13.58.2-4-1.87a.52.52,0,0,1-.29-.43l-.21-4.07-5.42-.93c.2,1.27.53,3.8.11,4.85C180,152,178.25,152.83,176.59,153.45Z" style="fill:#263238"></path><path d="M178,137.45s-.25,5.28.25,7.29a6,6,0,0,0,6.91,3.64c3.27-.88,3.89-5.15,3.89-6.28s-.5-7.29-.5-7.29l-3.39-2.76S180.48,136.57,178,137.45Z" style="fill:#fff"></path><path d="M183.76,149.06a6.37,6.37,0,0,1-3.27-.93,5.8,5.8,0,0,1-2.76-3.27c-.51-2.06-.27-7.22-.26-7.44a.48.48,0,0,1,.33-.44c2.38-.84,6.93-5.25,7-5.29a.49.49,0,0,1,.66,0l3.4,2.76a.52.52,0,0,1,.18.35c0,.25.5,6.19.5,7.33,0,1.45-.78,5.82-4.26,6.76A5.83,5.83,0,0,1,183.76,149.06Zm-5.31-11.27a35.85,35.85,0,0,0,.25,6.82,4.91,4.91,0,0,0,2.29,2.66,5.24,5.24,0,0,0,4,.63c2.93-.79,3.52-4.78,3.52-5.8s-.39-5.95-.48-7l-2.89-2.35C184.09,133.71,180.69,136.83,178.45,137.79Z" style="fill:#263238"></path><path d="M174.08,205.59a56.31,56.31,0,0,1,.44,9.73c-.11,6.59-2.12,9.39-.33,15.88s4,14.2,4,15.76-4.36,5.82-3.35,6.82,3,.67,4.36-.89,1.68-5.82,1.68-7.38-.9-10.74,0-15.66.67-12.86.67-16.77.11-7.38.11-7.38Z" style="fill:#fff"></path><path d="M176.36,254.86a2.59,2.59,0,0,1-1.85-.72c-.86-.86.26-2.46,1.56-4.3a9.23,9.23,0,0,0,1.64-2.88c0-1.23-1.64-7.12-3.08-12.32l-.92-3.31a21,21,0,0,1-.28-10.06,41.51,41.51,0,0,0,.59-6,56.39,56.39,0,0,0-.44-9.63.54.54,0,0,1,.12-.42.49.49,0,0,1,.38-.17l7.61.11a.5.5,0,0,1,.49.52s-.11,3.5-.11,7.36c0,.59,0,1.26,0,2,0,4.23.08,10.63-.69,14.85-.69,3.78-.3,10.12-.09,13.52,0,1,.1,1.7.1,2,0,1.56-.32,6-1.8,7.7a4.46,4.46,0,0,1-3.12,1.64Zm-1.7-48.76a66.06,66.06,0,0,1,.36,9.23,43.48,43.48,0,0,1-.6,6.1,20.2,20.2,0,0,0,.25,9.63l.92,3.31c1.61,5.77,3.12,11.22,3.12,12.59,0,.86-.84,2.06-1.82,3.45-.65.92-1.85,2.64-1.67,3a1.62,1.62,0,0,0,1.22.42,3.45,3.45,0,0,0,2.4-1.29c1.18-1.37,1.56-5.34,1.56-7.05,0-.34-.05-1-.1-2-.21-3.45-.6-9.87.11-13.77.75-4.13.7-10.47.67-14.66,0-.75,0-1.43,0-2,0-3,.07-5.78.1-6.89Z" style="fill:#263238"></path><path d="M179.22,252.89a7.91,7.91,0,0,0,1.31-3.52,5.29,5.29,0,0,1-.86.72c-1.13.72-2.63-.25-2.87-.42-1.17,1.68-2.55,3.5-1.94,4.11C175.87,254.79,177.88,254.45,179.22,252.89Z" style="fill:#fff"></path><path d="M176.36,254.86a2.59,2.59,0,0,1-1.85-.72c-.86-.86.26-2.46,1.56-4.3l.32-.45a.49.49,0,0,1,.69-.13c.15.1,1.45,1,2.32.41a4.88,4.88,0,0,0,.78-.66.5.5,0,0,1,.84.45,8.17,8.17,0,0,1-1.42,3.75h0a4.46,4.46,0,0,1-3.12,1.64Zm.58-4.52-.05.07c-.65.92-1.86,2.64-1.67,3a1.62,1.62,0,0,0,1.22.42,3.45,3.45,0,0,0,2.4-1.29,5.2,5.2,0,0,0,.89-1.93A3.14,3.14,0,0,1,176.94,250.34Zm2.28,2.55h0Z" style="fill:#263238"></path><path d="M190.71,205.59a56.76,56.76,0,0,0-.45,9.73c.11,6.59,2.12,9.39.33,15.88s-4,14.2-4,15.76,4.36,5.82,3.35,6.82-3,.67-4.36-.89-1.67-5.82-1.67-7.38.89-10.74,0-15.66-.68-12.86-.68-16.77-.11-7.38-.11-7.38Z" style="fill:#fff"></path><path d="M188.43,254.86h-.13a4.48,4.48,0,0,1-3.12-1.64c-1.47-1.72-1.79-6.14-1.79-7.7,0-.35,0-1.08.1-2,.2-3.4.59-9.74-.1-13.52-.76-4.22-.72-10.62-.69-14.85,0-.75,0-1.42,0-2,0-3.86-.11-7.33-.11-7.36a.55.55,0,0,1,.14-.37.51.51,0,0,1,.36-.15l7.6-.11a.57.57,0,0,1,.39.17.53.53,0,0,1,.11.42,56.39,56.39,0,0,0-.44,9.63,41.51,41.51,0,0,0,.59,6,21,21,0,0,1-.27,10.06l-.92,3.3c-1.45,5.2-3.09,11.1-3.09,12.33a9.23,9.23,0,0,0,1.64,2.88c1.3,1.84,2.42,3.44,1.57,4.3A2.61,2.61,0,0,1,188.43,254.86Zm-4.81-48.67c0,1.11.09,3.88.09,6.89,0,.59,0,1.27,0,2,0,4.19-.07,10.53.68,14.66.71,3.9.32,10.32.11,13.77-.06.94-.1,1.64-.1,2,0,1.71.38,5.68,1.55,7.05a3.47,3.47,0,0,0,2.4,1.29,1.66,1.66,0,0,0,1.23-.42c.18-.38-1-2.1-1.68-3-1-1.39-1.82-2.59-1.82-3.45,0-1.37,1.52-6.83,3.13-12.6l.91-3.3a20.08,20.08,0,0,0,.25-9.63,43.48,43.48,0,0,1-.6-6.1,63.76,63.76,0,0,1,.37-9.23Z" style="fill:#263238"></path><path d="M185.56,252.89a8.16,8.16,0,0,1-1.31-3.52,5.33,5.33,0,0,0,.87.72c1.12.72,2.62-.25,2.87-.42,1.17,1.68,2.55,3.5,1.93,4.11C188.92,254.79,186.9,254.45,185.56,252.89Z" style="fill:#fff"></path><path d="M188.43,254.86h-.13a4.48,4.48,0,0,1-3.12-1.64h0a8.17,8.17,0,0,1-1.42-3.75.51.51,0,0,1,.26-.54.5.5,0,0,1,.58.09,6,6,0,0,0,.78.66c.88.56,2.18-.31,2.32-.41a.5.5,0,0,1,.7.13l.31.45c1.3,1.84,2.42,3.44,1.57,4.3A2.61,2.61,0,0,1,188.43,254.86Zm-2.49-2.3a3.47,3.47,0,0,0,2.4,1.29,1.66,1.66,0,0,0,1.23-.42c.18-.38-1-2.1-1.68-3l0-.07a3.14,3.14,0,0,1-2.79.29,5.2,5.2,0,0,0,.89,1.93Z" style="fill:#263238"></path><path d="M173.11,179s-4.14,7.53-3.4,14.52A87.26,87.26,0,0,0,172.36,207H192a96.3,96.3,0,0,0,2.23-15.27A37.69,37.69,0,0,0,192.61,179Z" style="fill:#263238"></path><path d="M192,207.48H172.36a.51.51,0,0,1-.48-.36,86.81,86.81,0,0,1-2.66-13.55c-.75-7.07,3.28-14.51,3.45-14.82a.49.49,0,0,1,.44-.26h19.5a.51.51,0,0,1,.47.34,37.76,37.76,0,0,1,1.62,12.9,97.66,97.66,0,0,1-2.24,15.36A.49.49,0,0,1,192,207.48Zm-19.23-1h18.83a94.42,94.42,0,0,0,2.13-14.79,38,38,0,0,0-1.46-12.2H173.41c-.7,1.37-3.84,7.93-3.2,14A86.93,86.93,0,0,0,172.74,206.48Z" style="fill:#263238"></path><polygon points="173.1 178.99 192.61 178.99 190.49 153.55 176.07 153.55 173.1 178.99" style="fill:#fff"></polygon><path d="M192.61,179.49h-19.5a.53.53,0,0,1-.38-.16.52.52,0,0,1-.12-.4l3-25.44a.5.5,0,0,1,.49-.44h14.42a.5.5,0,0,1,.5.46L193.11,179a.5.5,0,0,1-.5.54Zm-18.94-1h18.4l-2-24.44H176.52Z" style="fill:#263238"></path><path d="M178.09,152.28s2,19.93,1.59,23.32-5.41,17.6-5.41,17.6L167,191.39s5.3-17.49,5.51-18.76-4.35-17.38-4.35-17.38Z" style="fill:#fff"></path><path d="M174.27,193.7l-.12,0-7.31-1.8a.49.49,0,0,1-.32-.24.53.53,0,0,1,0-.39c1.83-6,5.33-17.72,5.5-18.7s-2.61-11-4.34-17.17a.5.5,0,0,1,.34-.61l10-3a.54.54,0,0,1,.43.06.51.51,0,0,1,.21.37c.09.82,2,20,1.59,23.43s-5.22,17.12-5.43,17.7A.49.49,0,0,1,174.27,193.7ZM167.59,191,174,192.6c.83-2.39,4.86-14.09,5.23-17.06s-1.2-19.26-1.53-22.61l-8.91,2.66c1,3.53,4.43,15.87,4.22,17.12S168.48,188.1,167.59,191Z" style="fill:#263238"></path><path d="M188.32,152.28s-2,19.93-1.59,23.32,5.41,17.6,5.41,17.6l7.31-1.81s-5.3-17.49-5.51-18.76,4.35-17.38,4.35-17.38Z" style="fill:#fff"></path><path d="M192.14,193.7a.49.49,0,0,1-.47-.34c-.21-.58-5-14.29-5.43-17.7s1.5-22.61,1.58-23.43a.55.55,0,0,1,.22-.37.52.52,0,0,1,.42-.06l10,3a.5.5,0,0,1,.34.61c-1.73,6.13-4.44,16.2-4.34,17.17s3.67,12.66,5.5,18.7a.49.49,0,0,1-.36.63l-7.31,1.8Zm-3.38-40.77c-.33,3.35-1.9,19.64-1.53,22.61s4.4,14.67,5.23,17.06l6.36-1.56c-.89-2.94-5.18-17.14-5.37-18.33s3.22-13.59,4.22-17.12Z" style="fill:#263238"></path><path d="M168.12,155.25l-6.87,18.92a2.21,2.21,0,0,0,1.62,2.91h0a2.22,2.22,0,0,0,2.35-1l5.87-10Z" style="fill:#fff"></path><path d="M163.32,177.62a3.64,3.64,0,0,1-.56-.05,2.74,2.74,0,0,1-1.8-1.33,2.7,2.7,0,0,1-.18-2.24l6.87-18.92a.47.47,0,0,1,.49-.33.51.51,0,0,1,.47.37l3,10.81a.46.46,0,0,1,0,.38l-5.87,10A2.71,2.71,0,0,1,163.32,177.62Zm4.74-20.72-6.34,17.44a1.7,1.7,0,0,0,.11,1.41,1.71,1.71,0,0,0,3,0l5.76-9.8Z" style="fill:#263238"></path><path d="M163.83,172.74l13.67,2.38-.47,2.71-14.15.79a3,3,0,0,1-1.63-4.45" style="fill:#fff"></path><path d="M162.88,179.12a.41.41,0,0,1-.16,0,3.88,3.88,0,0,1-2.19-2,3.74,3.74,0,0,1,.27-3.16.51.51,0,0,1,.67-.23.5.5,0,0,1,.23.67,2.81,2.81,0,0,0-.25,2.32,2.87,2.87,0,0,0,1.51,1.41l13.64-.77.32-1.82-13.18-2.3a.5.5,0,0,1-.4-.58.49.49,0,0,1,.58-.4l13.67,2.38a.47.47,0,0,1,.32.21.48.48,0,0,1,.09.37l-.48,2.7a.51.51,0,0,1-.46.42l-14.16.79Z" style="fill:#263238"></path><path d="M177.5,175.12s3.82-1.27,4.77-1.43,4.93,2.39,4.46,2.86-2.07-.79-2.87-.79-1.9,1.11-2.7,1.43a5.63,5.63,0,0,1-2.54-.16l-1.27-.16Z" style="fill:#fff"></path><path d="M180.42,177.8a8.06,8.06,0,0,1-1.93-.29l-1.21-.14a.49.49,0,0,1-.43-.54l.16-1.75a.48.48,0,0,1,.34-.43c.15-.05,3.86-1.29,4.84-1.45s4.48,1.92,5,2.88a.68.68,0,0,1-.09.83c-.52.52-1.35.13-2.14-.24a3.54,3.54,0,0,0-1.08-.41,3.64,3.64,0,0,0-1.37.72,6.35,6.35,0,0,1-1.14.67A2.45,2.45,0,0,1,180.42,177.8Zm-2.53-1.36.79.1a5.31,5.31,0,0,0,2.3.19,6.19,6.19,0,0,0,.94-.58,2.55,2.55,0,0,1,3.45-.39l.2.09a9.75,9.75,0,0,0-3.21-1.66c-.69.11-3.16.9-4.39,1.31Z" style="fill:#263238"></path><path d="M198.4,155.25l6.88,18.92a2.21,2.21,0,0,1-1.62,2.91h0a2.22,2.22,0,0,1-2.35-1l-5.87-10Z" style="fill:#fff"></path><path d="M203.21,177.62a2.69,2.69,0,0,1-2.33-1.33l-5.87-10a.5.5,0,0,1-.06-.38l3-10.81a.51.51,0,0,1,.46-.37.46.46,0,0,1,.49.33L205.75,174a2.71,2.71,0,0,1-2,3.57A3.64,3.64,0,0,1,203.21,177.62ZM196,166l5.77,9.8a1.7,1.7,0,0,0,1.82.8,1.67,1.67,0,0,0,1.13-.84,1.7,1.7,0,0,0,.12-1.41l-6.34-17.44Z" style="fill:#263238"></path><path d="M202.84,172.71l-13.85,1,.21,2.74,14,2.18a3,3,0,0,0,2-4.27" style="fill:#fff"></path><path d="M203.21,179.16h-.08l-14-2.19a.5.5,0,0,1-.43-.45l-.21-2.74a.51.51,0,0,1,.47-.54l13.84-1a.49.49,0,0,1,.53.46.49.49,0,0,1-.46.53l-13.34,1,.14,1.85,13.51,2.1a2.88,2.88,0,0,0,1.63-1.24,2.76,2.76,0,0,0,0-2.34.5.5,0,0,1,.3-.64.49.49,0,0,1,.64.29,3.74,3.74,0,0,1,0,3.17,3.93,3.93,0,0,1-2.37,1.76Z" style="fill:#263238"></path><path d="M189,173.74s-3.67-1.64-4.6-1.89-5.14,1.89-4.71,2.41,2.13-.59,2.92-.51,1.79,1.3,2.55,1.69a5.6,5.6,0,0,0,2.55.09l1.28,0Z" style="fill:#fff"></path><path d="M186.38,176.14a3.26,3.26,0,0,1-1.46-.26,6.27,6.27,0,0,1-1.07-.78,3.48,3.48,0,0,0-1.3-.85,3.79,3.79,0,0,0-1.11.3c-.83.29-1.68.6-2.15,0a.69.69,0,0,1,0-.83c.59-.92,4.18-2.66,5.24-2.38s4.53,1.85,4.68,1.92a.5.5,0,0,1,.29.46v1.75a.51.51,0,0,1-.49.5l-1.28,0A7.73,7.73,0,0,1,186.38,176.14Zm-3.86-2.89h.13a4,4,0,0,1,1.85,1.08,5.4,5.4,0,0,0,.88.67,5.14,5.14,0,0,0,2.23,0l.87,0v-.94c-1.18-.52-3.56-1.56-4.23-1.74a9.15,9.15,0,0,0-3.36,1.35l.2-.07A4.42,4.42,0,0,1,182.52,173.25Z" style="fill:#263238"></path><polygon points="161.88 260.87 162.78 263.62 165.67 263.62 163.33 265.32 164.22 268.07 161.88 266.37 159.54 268.07 160.44 265.32 158.09 263.62 160.99 263.62 161.88 260.87" style="fill:#263238"></polygon><path d="M164.23,268.57a.53.53,0,0,1-.3-.09L161.88,267l-2,1.49a.53.53,0,0,1-.59,0,.49.49,0,0,1-.18-.56l.78-2.41-2-1.49a.5.5,0,0,1,.29-.9h2.54l.78-2.41a.52.52,0,0,1,1,0l.78,2.41h2.53a.5.5,0,0,1,.3.9l-2.05,1.49.78,2.41a.51.51,0,0,1-.18.56A.52.52,0,0,1,164.23,268.57Zm-2.35-2.7a.47.47,0,0,1,.3.1l1.09.79-.41-1.29a.47.47,0,0,1,.18-.55l1.09-.8h-1.35a.5.5,0,0,1-.48-.35l-.42-1.29-.42,1.29a.48.48,0,0,1-.47.35h-1.36l1.1.8a.47.47,0,0,1,.18.55l-.42,1.29,1.1-.79A.46.46,0,0,1,161.88,265.87Z" style="fill:#263238"></path><polygon points="172.36 260.87 173.26 263.62 176.15 263.62 173.81 265.32 174.7 268.07 172.36 266.37 170.02 268.07 170.91 265.32 168.57 263.62 171.47 263.62 172.36 260.87" style="fill:#263238"></polygon><path d="M174.7,268.57a.52.52,0,0,1-.29-.09l-2-1.49-2.05,1.49a.51.51,0,0,1-.58,0,.49.49,0,0,1-.18-.56l.78-2.41L168.28,264a.49.49,0,0,1-.18-.56.51.51,0,0,1,.47-.34h2.53l.79-2.41a.52.52,0,0,1,1,0l.78,2.41h2.53a.51.51,0,0,1,.48.34.52.52,0,0,1-.18.56l-2,1.49.78,2.41a.51.51,0,0,1-.18.56A.53.53,0,0,1,174.7,268.57Zm-4.59-4.45,1.1.8a.49.49,0,0,1,.18.55l-.42,1.29,1.1-.79a.49.49,0,0,1,.59,0l1.09.79-.42-1.29a.49.49,0,0,1,.19-.55l1.09-.8h-1.35a.5.5,0,0,1-.48-.35l-.42-1.29-.42,1.29a.48.48,0,0,1-.47.35Z" style="fill:#263238"></path><polygon points="182.84 260.87 183.74 263.62 186.63 263.62 184.29 265.32 185.18 268.07 182.84 266.37 180.5 268.07 181.39 265.32 179.05 263.62 181.95 263.62 182.84 260.87" style="fill:#263238"></polygon><path d="M185.18,268.57a.52.52,0,0,1-.29-.09l-2-1.49-2.05,1.49a.5.5,0,0,1-.77-.56l.79-2.41L178.76,264a.49.49,0,0,1-.18-.56.5.5,0,0,1,.47-.34h2.53l.79-2.41a.52.52,0,0,1,.95,0l.78,2.41h2.53a.49.49,0,0,1,.29.9l-2,1.49.78,2.41a.51.51,0,0,1-.18.56A.53.53,0,0,1,185.18,268.57Zm-2.34-2.7a.49.49,0,0,1,.3.1l1.09.79-.42-1.29a.49.49,0,0,1,.19-.55l1.09-.8h-1.35a.5.5,0,0,1-.48-.35l-.42-1.29-.42,1.29a.49.49,0,0,1-.47.35h-1.36l1.1.8a.49.49,0,0,1,.18.55l-.42,1.29,1.1-.79A.46.46,0,0,1,182.84,265.87Z" style="fill:#263238"></path><polygon points="193.32 260.87 194.22 263.62 197.11 263.62 194.77 265.32 195.66 268.07 193.32 266.37 190.98 268.07 191.87 265.32 189.53 263.62 192.43 263.62 193.32 260.87" style="fill:#fff"></polygon><path d="M195.66,268.57a.52.52,0,0,1-.29-.09L193.32,267l-2,1.49a.5.5,0,0,1-.77-.56l.79-2.41-2-1.49a.5.5,0,0,1,.29-.9h2.53l.79-2.41a.52.52,0,0,1,1,0l.78,2.41h2.53a.5.5,0,0,1,.29.9l-2,1.49.78,2.41a.51.51,0,0,1-.18.56A.53.53,0,0,1,195.66,268.57Zm-4.59-4.45,1.1.8a.49.49,0,0,1,.18.55l-.42,1.29L193,266a.48.48,0,0,1,.58,0l1.1.79-.42-1.29a.5.5,0,0,1,.18-.55l1.1-.8h-1.35a.5.5,0,0,1-.48-.35l-.42-1.29-.42,1.29a.5.5,0,0,1-.47.35Z" style="fill:#263238"></path><polygon points="203.8 260.87 204.69 263.62 207.59 263.62 205.25 265.32 206.14 268.07 203.8 266.37 201.46 268.07 202.35 265.32 200.01 263.62 202.91 263.62 203.8 260.87" style="fill:#fff"></polygon><path d="M206.14,268.57a.52.52,0,0,1-.29-.09l-2-1.49-2.05,1.49a.5.5,0,0,1-.77-.56l.78-2.41-2-1.49a.5.5,0,0,1,.29-.9h2.53l.78-2.41a.53.53,0,0,1,1,0l.78,2.41h2.53a.5.5,0,0,1,.29.9l-2,1.49.79,2.41a.52.52,0,0,1-.18.56A.55.55,0,0,1,206.14,268.57Zm-2.34-2.7a.45.45,0,0,1,.29.1l1.1.79-.42-1.29a.49.49,0,0,1,.18-.55l1.1-.8h-1.36a.5.5,0,0,1-.47-.35l-.42-1.29-.42,1.29a.5.5,0,0,1-.47.35h-1.36l1.1.8a.49.49,0,0,1,.18.55l-.42,1.29,1.1-.79A.45.45,0,0,1,203.8,265.87Z" style="fill:#263238"></path></g></svg>